<svg xmlns="http://www.w3.org/2000/svg" xmlns:xlink="http://www.w3.org/1999/xlink" width="1360.5" height="1292" viewBox="0 0 1360.5 1292"><defs><linearGradient id="a" x1="0.5" x2="0.5" y2="1" gradientUnits="objectBoundingBox"><stop offset="0" stop-color="#fff"/><stop offset="1" stop-color="#f5f5f5"/></linearGradient></defs><g transform="translate(-3878 -2153)"><path d="M6,0H1354a6,6,0,0,1,6,6V88a0,0,0,0,1,0,0H0a0,0,0,0,1,0,0V6A6,6,0,0,1,6,0Z" transform="translate(3878 2153)" fill="url(#a)"/><path d="M10.5,5.712c-5.728,0-8.512,3.392-8.512,7.328,0,4.64,3.584,5.888,7.9,6.976,3.2.8,4.928,1.472,4.928,3.3,0,1.952-1.568,2.752-3.776,2.752-2.592,0-4.48-1.472-4.576-3.648l-5.024.256c.064,4.96,4.064,7.68,9.6,7.68,4.8,0,8.8-2.24,8.8-7.328,0-4.256-3.232-5.792-8.128-7.04-3.3-.768-4.672-1.28-4.672-3.1,0-1.7,1.28-2.88,3.552-2.88s3.68,1.312,3.712,3.328l5.056-.256C19.232,8.464,15.68,5.712,10.5,5.712Zm27.744,4.7V6.064H22.88V30H38.272V25.616H27.84v-5.76h9.024V15.6H27.84V10.416ZM55.04,30h5.568L55.52,20.592c2.368-1.152,3.84-3.52,3.84-6.848,0-4.928-3.168-7.68-7.712-7.68H41.408V30h4.96V21.392h4Zm-8.7-12.992V10.416h4.7a3.067,3.067,0,0,1,3.3,3.328,3.049,3.049,0,0,1-3.3,3.264ZM63.3,6.064V30h4.96V21.488h5.408c4.544,0,7.712-2.784,7.712-7.712s-3.168-7.712-7.712-7.712Zm4.928,4.352h4.8a3.116,3.116,0,0,1,3.328,3.36A3.091,3.091,0,0,1,73.024,17.1h-4.8ZM93.056,23.792V19.44H82.944v4.352ZM111.52,10.416V6.064H96.16V30h4.96V19.952h8.48V15.6h-8.48V10.416Zm16.768,12.8V21.36c0-5.152-3.136-8.224-7.9-8.224-4.928,0-8.416,3.264-8.416,8.608,0,5.312,3.488,8.608,8.544,8.608,3.872,0,7.04-2.24,7.616-5.376l-4.7-.224c-.352,1.152-1.408,1.824-3.04,1.824a3.234,3.234,0,0,1-3.456-3.36Zm-7.936-6.432c2.112,0,3.136,1.312,3.232,3.328h-6.656A3.232,3.232,0,0,1,120.352,16.784Zm17.376-3.648c-4.256,0-6.912,3.008-6.912,5.92l4.672.192a2.115,2.115,0,0,1,2.3-2.176c1.44,0,2.144.9,2.144,2.56v.64l-2.944.16c-3.52.16-6.624,1.344-6.624,5.024,0,3.2,2.176,4.9,5.5,4.9a5.726,5.726,0,0,0,4.224-1.7V30h4.512V19.792C144.608,15.44,142.176,13.136,137.728,13.136Zm2.208,10.208v.7c0,1.76-1.28,2.688-2.976,2.688-1.12,0-1.92-.416-1.92-1.5,0-1.184.992-1.664,2.4-1.728Zm14.144-5.856h3.9V13.456h-3.872l.032-5.472h-4.672l-.032,5.472H146.4v4.032h3.008l-.032,7.264c-.032,3.84,2.432,5.568,6.016,5.568a15.559,15.559,0,0,0,2.592-.192v-4.16a6.908,6.908,0,0,1-1.44.16,2.282,2.282,0,0,1-2.5-2.5ZM175.2,30V13.456h-4.672V22.8c0,1.856-1.024,3.2-2.816,3.2-1.824,0-2.656-1.12-2.656-3.136V13.456h-4.672v10.4c0,4.032,2.3,6.5,6.112,6.5a4.73,4.73,0,0,0,4.288-2.016V30Zm12.928-16.7c-2.528,0-3.84.96-4.544,2.048V13.456h-4.512V30h4.672V21.616c0-2.272,1.7-3.808,4.384-3.808Zm17.664,9.92V21.36c0-5.152-3.136-8.224-7.9-8.224-4.928,0-8.416,3.264-8.416,8.608,0,5.312,3.488,8.608,8.544,8.608,3.872,0,7.04-2.24,7.616-5.376l-4.7-.224c-.352,1.152-1.408,1.824-3.04,1.824a3.234,3.234,0,0,1-3.456-3.36Zm-7.936-6.432c2.112,0,3.136,1.312,3.232,3.328h-6.656A3.232,3.232,0,0,1,197.856,16.784Zm16.576-3.648c-4.16,0-6.624,2.048-6.624,5.216,0,3.392,2.336,4.128,5.856,5.024,2.4.576,3.008.9,3.008,1.888,0,.96-.8,1.5-2.08,1.5-1.6,0-2.336-.832-2.4-2.048l-4.672.256c.352,3.456,2.816,5.376,7.04,5.376,4.32,0,6.784-2.144,6.784-5.5,0-3.008-2.336-4.032-5.632-4.9-1.984-.512-3.232-.672-3.232-1.824,0-.9.64-1.408,1.888-1.408a1.91,1.91,0,0,1,2.112,2.016l4.64-.256C220.832,15.408,218.624,13.136,214.432,13.136Zm11.264,0a2.816,2.816,0,1,0,2.848,2.848A2.807,2.807,0,0,0,225.7,13.136Zm0,11.552a2.832,2.832,0,1,0,2.848,2.848A2.807,2.807,0,0,0,225.7,24.688ZM260.768,30l-10.3-23.936H246.3L236.032,30h5.408l1.984-4.608h9.952L255.328,30Zm-15.584-8.64,3.232-7.648,3.232,7.648Zm22.08-16.224h-4.672V30h4.416V28.3a6.121,6.121,0,0,0,4.9,2.048c4.7,0,8-3.424,8-8.608,0-5.216-3.3-8.608-8-8.608a6.165,6.165,0,0,0-4.64,1.76Zm3.9,12c2.336,0,4,1.664,4,4.608s-1.664,4.576-4,4.576c-2.3,0-3.9-1.536-3.9-4.224V21.36C267.264,18.7,268.864,17.136,271.168,17.136ZM300.352,30l6.368-16.544H301.6l-3.232,9.472-3.424-9.472H291.68l-3.392,9.472-3.232-9.472h-5.12L286.272,30h3.712l3.328-8.768L296.64,30Zm22.688-6.784V21.36c0-5.152-3.136-8.224-7.9-8.224-4.928,0-8.416,3.264-8.416,8.608,0,5.312,3.488,8.608,8.544,8.608,3.872,0,7.04-2.24,7.616-5.376l-4.7-.224c-.352,1.152-1.408,1.824-3.04,1.824a3.234,3.234,0,0,1-3.456-3.36ZM315.1,16.784c2.112,0,3.136,1.312,3.232,3.328H311.68A3.232,3.232,0,0,1,315.1,16.784ZM328.352,5.232a2.814,2.814,0,0,0-2.784,2.816,2.8,2.8,0,0,0,5.6,0A2.8,2.8,0,0,0,328.352,5.232ZM330.688,30V13.456h-4.672V30Zm11.488-16.864c-4.9,0-8.48,3.168-8.48,8.608,0,5.408,3.616,8.608,8.48,8.608,4.064,0,7.2-2.4,7.84-6.3l-4.544-.416a3.07,3.07,0,0,1-3.3,2.688c-2.176,0-3.744-1.664-3.744-4.576,0-2.944,1.568-4.608,3.744-4.608a3.09,3.09,0,0,1,3.264,2.784l4.576-.384C349.408,15.536,346.208,13.136,342.176,13.136Zm15.3-8H352.8V30h4.672V20.816a3.03,3.03,0,0,1,3.072-3.328c1.792,0,2.912,1.184,2.912,3.3V30h4.672V19.888c0-4.288-2.656-6.752-6.464-6.752a5.114,5.114,0,0,0-4.192,1.728ZM386.432,30V13.456H381.76V22.8c0,1.856-1.024,3.2-2.816,3.2-1.824,0-2.656-1.12-2.656-3.136V13.456h-4.672v10.4c0,4.032,2.3,6.5,6.112,6.5a4.73,4.73,0,0,0,4.288-2.016V30Zm12.736-16.864a5,5,0,0,0-4.448,2.016v-1.7H390.3V30h4.672V20.816a3.03,3.03,0,0,1,3.072-3.328c1.792,0,2.912,1.184,2.912,3.3V30h4.672V19.888C405.632,15.6,402.976,13.136,399.168,13.136Zm17.248,0c-4.672,0-7.968,3.424-7.968,8.608s3.3,8.608,7.968,8.608a6.37,6.37,0,0,0,4.672-1.76V30.96c0,2.368-1.568,3.552-3.872,3.552-2.112,0-3.488-.96-3.712-2.56l-4.64.16c.608,3.776,3.328,6.368,8.512,6.368,5.088,0,8.352-3.1,8.352-7.872V13.456h-4.384v1.728A6.047,6.047,0,0,0,416.416,13.136Zm.768,4c2.3,0,3.9,1.568,3.9,4.224v.768c0,2.656-1.6,4.224-3.9,4.224-2.336,0-4-1.664-4-4.608S414.848,17.136,417.184,17.136ZM458.528,30l-10.3-23.936h-4.16L433.792,30H439.2l1.984-4.608h9.952L453.088,30Zm-15.584-8.64,3.232-7.648,3.232,7.648Zm26.272-8.224a5,5,0,0,0-4.448,2.016v-1.7h-4.416V30h4.672V20.816a3.03,3.03,0,0,1,3.072-3.328c1.792,0,2.912,1.184,2.912,3.3V30h4.672V19.888C475.68,15.6,473.024,13.136,469.216,13.136Zm15.9,4.352h3.9V13.456h-3.872l.032-5.472h-4.672l-.032,5.472h-3.04v4.032h3.008l-.032,7.264c-.032,3.84,2.432,5.568,6.016,5.568a15.559,15.559,0,0,0,2.592-.192v-4.16a6.908,6.908,0,0,1-1.44.16,2.282,2.282,0,0,1-2.5-2.5Zm21.888,5.728V21.36c0-5.152-3.136-8.224-7.9-8.224-4.928,0-8.416,3.264-8.416,8.608,0,5.312,3.488,8.608,8.544,8.608,3.872,0,7.04-2.24,7.616-5.376l-4.7-.224c-.352,1.152-1.408,1.824-3.04,1.824a3.234,3.234,0,0,1-3.456-3.36Zm-7.936-6.432c2.112,0,3.136,1.312,3.232,3.328h-6.656A3.232,3.232,0,0,1,499.072,16.784ZM512.32,5.232a2.814,2.814,0,0,0-2.784,2.816,2.8,2.8,0,0,0,5.6,0A2.8,2.8,0,0,0,512.32,5.232ZM514.656,30V13.456h-4.672V30Zm8.576,0V5.136H518.56V30Zm36.832,0V6.064h-4.352l-8.768,16.448L538.112,6.064h-4.384V30h4.96V17.072l6.624,12.672h3.264l6.592-12.672V30Zm11.9-16.864c-5.056,0-8.8,3.392-8.8,8.608,0,5.184,3.744,8.608,8.8,8.608s8.8-3.424,8.8-8.608C580.768,16.528,577.024,13.136,571.968,13.136Zm0,4c2.4,0,4.064,1.7,4.064,4.608,0,2.88-1.664,4.576-4.064,4.576s-4.064-1.7-4.064-4.576C567.9,18.832,569.568,17.136,571.968,17.136Zm16.448-12h-4.672V30h4.416V28.3a6.121,6.121,0,0,0,4.9,2.048c4.7,0,8-3.424,8-8.608,0-5.216-3.3-8.608-8-8.608a6.165,6.165,0,0,0-4.64,1.76Zm3.9,12c2.336,0,4,1.664,4,4.608s-1.664,4.576-4,4.576c-2.3,0-3.9-1.536-3.9-4.224V21.36C588.416,18.7,590.016,17.136,592.32,17.136Zm14.048-11.9a2.814,2.814,0,0,0-2.784,2.816,2.8,2.8,0,0,0,5.6,0A2.8,2.8,0,0,0,606.368,5.232ZM608.7,30V13.456h-4.672V30Zm8.576,0V5.136h-4.672V30Zm19.328-6.784V21.36c0-5.152-3.136-8.224-7.9-8.224-4.928,0-8.416,3.264-8.416,8.608,0,5.312,3.488,8.608,8.544,8.608,3.872,0,7.04-2.24,7.616-5.376l-4.7-.224c-.352,1.152-1.408,1.824-3.04,1.824a3.234,3.234,0,0,1-3.456-3.36Zm-7.936-6.432c2.112,0,3.136,1.312,3.232,3.328h-6.656A3.232,3.232,0,0,1,628.672,16.784ZM654.816,30l7.136-16.544H656.8l-3.84,9.728-3.872-9.728h-5.152L651.072,30Zm15.968-16.864c-5.056,0-8.8,3.392-8.8,8.608,0,5.184,3.744,8.608,8.8,8.608s8.8-3.424,8.8-8.608C679.584,16.528,675.84,13.136,670.784,13.136Zm0,4c2.4,0,4.064,1.7,4.064,4.608,0,2.88-1.664,4.576-4.064,4.576s-4.064-1.7-4.064-4.576C666.72,18.832,668.384,17.136,670.784,17.136Zm20.64-4a5,5,0,0,0-4.448,2.016v-1.7H682.56V30h4.672V20.816a3.03,3.03,0,0,1,3.072-3.328c1.792,0,2.912,1.184,2.912,3.3V30h4.672V19.888C697.888,15.6,695.232,13.136,691.424,13.136Zm16.768-7.072V30h9.824c6.816,0,11.9-4.448,11.9-11.968S724.864,6.064,718.048,6.064Zm4.928,4.224h4.96c4.192,0,6.944,2.592,6.944,7.744s-2.784,7.744-6.944,7.744h-4.96ZM747.712,30V13.456H743.04V22.8c0,1.856-1.024,3.2-2.816,3.2-1.824,0-2.656-1.12-2.656-3.136V13.456H732.9v10.4c0,4.032,2.3,6.5,6.112,6.5a4.73,4.73,0,0,0,4.288-2.016V30ZM760.64,13.3c-2.528,0-3.84.96-4.544,2.048V13.456h-4.512V30h4.672V21.616c0-2.272,1.7-3.808,4.384-3.808Zm9.824-.16c-4.9,0-8.48,3.168-8.48,8.608,0,5.408,3.616,8.608,8.48,8.608,4.064,0,7.2-2.4,7.84-6.3l-4.544-.416a3.07,3.07,0,0,1-3.3,2.688c-2.176,0-3.744-1.664-3.744-4.576,0-2.944,1.568-4.608,3.744-4.608a3.09,3.09,0,0,1,3.264,2.784l4.576-.384C777.7,15.536,774.5,13.136,770.464,13.136Zm15.3-8h-4.672V30h4.672V20.816a3.03,3.03,0,0,1,3.072-3.328c1.792,0,2.912,1.184,2.912,3.3V30h4.672V19.888c0-4.288-2.656-6.752-6.464-6.752a5.114,5.114,0,0,0-4.192,1.728Zm19.968,8c-4.16,0-6.624,2.048-6.624,5.216,0,3.392,2.336,4.128,5.856,5.024,2.4.576,3.008.9,3.008,1.888,0,.96-.8,1.5-2.08,1.5-1.6,0-2.336-.832-2.4-2.048l-4.672.256c.352,3.456,2.816,5.376,7.04,5.376,4.32,0,6.784-2.144,6.784-5.5,0-3.008-2.336-4.032-5.632-4.9-1.984-.512-3.232-.672-3.232-1.824,0-.9.64-1.408,1.888-1.408a1.91,1.91,0,0,1,2.112,2.016l4.64-.256C812.128,15.408,809.92,13.136,805.728,13.136Zm17.376,0c-4.9,0-8.48,3.168-8.48,8.608,0,5.408,3.616,8.608,8.48,8.608,4.064,0,7.2-2.4,7.84-6.3l-4.544-.416a3.07,3.07,0,0,1-3.3,2.688c-2.176,0-3.744-1.664-3.744-4.576,0-2.944,1.568-4.608,3.744-4.608a3.09,3.09,0,0,1,3.264,2.784l4.576-.384C830.336,15.536,827.136,13.136,823.1,13.136Zm15.3-8h-4.672V30H838.4V20.816a3.03,3.03,0,0,1,3.072-3.328c1.792,0,2.912,1.184,2.912,3.3V30h4.672V19.888c0-4.288-2.656-6.752-6.464-6.752a5.114,5.114,0,0,0-4.192,1.728Zm23.168,8a5,5,0,0,0-4.448,2.016v-1.7H852.7V30h4.672V20.816a3.03,3.03,0,0,1,3.072-3.328c1.792,0,2.912,1.184,2.912,3.3V30h4.672V19.888C868.032,15.6,865.376,13.136,861.568,13.136Zm12.512-7.9A2.814,2.814,0,0,0,871.3,8.048a2.8,2.8,0,0,0,5.6,0A2.8,2.8,0,0,0,874.08,5.232ZM876.416,30V13.456h-4.672V30Zm9.632-12.512h3.9V13.456H886.08l.032-5.472H881.44l-.032,5.472h-3.04v4.032h3.008l-.032,7.264c-.032,3.84,2.432,5.568,6.016,5.568a15.558,15.558,0,0,0,2.592-.192v-4.16a6.908,6.908,0,0,1-1.44.16,2.282,2.282,0,0,1-2.5-2.5Zm12.384,0h3.9V13.456h-3.872l.032-5.472h-4.672l-.032,5.472h-3.04v4.032h3.008l-.032,7.264c-.032,3.84,2.432,5.568,6.016,5.568a15.558,15.558,0,0,0,2.592-.192v-4.16a6.908,6.908,0,0,1-1.44.16,2.282,2.282,0,0,1-2.5-2.5Z" transform="translate(3991 2180)" fill="#00285a"/><line x2="1360" transform="translate(3878.5 2240.5)" fill="none" stroke="#e3e3e3" stroke-width="2"/></g><g transform="translate(111)"><rect width="257" height="52" transform="translate(977 1240)" fill="#fff"/><g transform="translate(1017.8 1041.823)"><path d="M87.056,45.443c0,3.458-3.332,6.665-9.683,6.665A18.539,18.539,0,0,1,69.2,50.221l1.509-2.641a14.128,14.128,0,0,0,6.79,1.7c3.018,0,4.9-1.257,4.9-3.269,0-1.509-1.132-2.515-3.71-3.018l-2.641-.629a7.92,7.92,0,0,1-4.778-2.515,4.5,4.5,0,0,1-1.006-3.018c0-3.647,3.458-6.162,8.425-6.162a15.572,15.572,0,0,1,7.859,2.012l-1.886,2.452a12.094,12.094,0,0,0-5.847-1.509c-2.452,0-4.024,1.132-4.024,2.829,0,1.32.88,1.949,3.269,2.578l2.955.692C84.541,40.413,87.056,42.3,87.056,45.443Zm26.533-5.91-2.955-.692c-2.452-.629-3.269-1.257-3.269-2.578,0-1.7,1.635-2.829,4.024-2.829a11.918,11.918,0,0,1,5.847,1.509l1.886-2.452a15.463,15.463,0,0,0-7.859-1.886c-4.967,0-8.425,2.515-8.425,6.162a4.29,4.29,0,0,0,1.006,3.018,7.909,7.909,0,0,0,4.841,2.515l2.641.629c2.578.566,3.71,1.509,3.71,3.018,0,2.075-1.823,3.269-4.9,3.269a14.822,14.822,0,0,1-6.728-1.7l-1.509,2.641a18.342,18.342,0,0,0,8.174,1.886c6.35,0,9.683-3.207,9.683-6.665C119.688,42.3,117.173,40.413,113.59,39.533ZM92.527,51.668h4.213V30.919H92.527Zm29.3-17.919h6.287V51.668h4.15V33.811h6.225l.566-2.892H121.889v2.829Zm60.8,6.539,6.287-9.431h-4.9l-3.9,6.476-3.961-6.413h-5.03l6.665,9.62L170.177,51.73h5.093l4.967-8.237,5.156,8.237h4.9ZM154.835,46.7l3.647,4.967h-4.9l-2.138-3.207a23.639,23.639,0,0,0-4.213-5.156,2.227,2.227,0,0,0-1.635-.629V51.73h-4.087V30.919h7.608c5.533,0,8.111,2.7,8.111,5.973a5.742,5.742,0,0,1-5.722,5.722h-.44A16.7,16.7,0,0,1,154.835,46.7Zm-3.018-7.293a3.256,3.256,0,0,0,1.132-2.515c0-2.138-1.383-3.207-5.03-3.207h-2.326v6.6h2.138a6.4,6.4,0,0,0,4.087-.88ZM162.946,51.73h4.213V30.919h-4.275Zm75.324,15.4L226.009,54.874a17.341,17.341,0,1,1,3.018-3.081l12.323,12.323ZM215.384,55.063a13.77,13.77,0,1,0-13.77-13.77,13.766,13.766,0,0,0,13.77,13.77Z" transform="translate(-46 174)" fill="#ddd"/></g></g><path d="M39.453,34.586,31.664,26.8a1.874,1.874,0,0,0-1.328-.547H29.063a16.243,16.243,0,1,0-2.812,2.813v1.273a1.874,1.874,0,0,0,.547,1.328l7.789,7.789a1.867,1.867,0,0,0,2.648,0l2.211-2.211A1.884,1.884,0,0,0,39.453,34.586ZM16.25,26.25a10,10,0,1,1,10-10A9.994,9.994,0,0,1,16.25,26.25Z" transform="translate(37 26)" fill="#1269d3"/><rect width="38" height="148" transform="translate(7 122)" fill="#fff"/><g transform="translate(-21)"><path d="M130.355,18.947H125.68V27h-2.639V7.094h6.59a7.8,7.8,0,0,1,5.175,1.531,5.509,5.509,0,0,1,1.812,4.457,5.359,5.359,0,0,1-1,3.24,6,6,0,0,1-2.8,2.064l4.676,8.449V27h-2.816ZM125.68,16.8h4.033a4.549,4.549,0,0,0,3.11-1.014,3.427,3.427,0,0,0,1.155-2.712,3.609,3.609,0,0,0-1.1-2.835,4.66,4.66,0,0,0-3.179-1h-4.02Zm20.357,10.473a6.463,6.463,0,0,1-4.895-1.976,7.332,7.332,0,0,1-1.887-5.284v-.465a8.877,8.877,0,0,1,.841-3.931,6.559,6.559,0,0,1,2.352-2.707,5.912,5.912,0,0,1,3.274-.978,5.54,5.54,0,0,1,4.484,1.9,8.228,8.228,0,0,1,1.6,5.441v1.053H141.785a5.258,5.258,0,0,0,1.278,3.534,4.018,4.018,0,0,0,3.11,1.347,4.405,4.405,0,0,0,2.27-.547,5.7,5.7,0,0,0,1.627-1.449l1.545,1.2A6.212,6.212,0,0,1,146.037,27.273Zm-.314-13.262a3.374,3.374,0,0,0-2.57,1.114,5.416,5.416,0,0,0-1.285,3.124h7.41v-.191a4.817,4.817,0,0,0-1.039-2.987A3.176,3.176,0,0,0,145.723,14.012Zm11.389,10.924h8.654V27H154.021V25.141L162.184,14.3h-8.039V12.207h11.211V14Zm17.418,2.338a6.463,6.463,0,0,1-4.895-1.976,7.332,7.332,0,0,1-1.887-5.284v-.465a8.877,8.877,0,0,1,.841-3.931,6.559,6.559,0,0,1,2.352-2.707,5.912,5.912,0,0,1,3.274-.978,5.54,5.54,0,0,1,4.484,1.9,8.228,8.228,0,0,1,1.6,5.441v1.053H170.277a5.258,5.258,0,0,0,1.278,3.534,4.018,4.018,0,0,0,3.11,1.347,4.405,4.405,0,0,0,2.27-.547,5.7,5.7,0,0,0,1.627-1.449l1.545,1.2A6.212,6.212,0,0,1,174.529,27.273Zm-.314-13.262a3.374,3.374,0,0,0-2.57,1.114,5.416,5.416,0,0,0-1.285,3.124h7.41v-.191a4.817,4.817,0,0,0-1.039-2.987A3.176,3.176,0,0,0,174.215,14.012Zm21.506,5.756a8.858,8.858,0,0,1-1.545,5.441,4.952,4.952,0,0,1-4.184,2.064,5.425,5.425,0,0,1-4.238-1.709v7.123h-2.529V12.207h2.311l.123,1.641a5.21,5.21,0,0,1,4.293-1.914,5.044,5.044,0,0,1,4.218,2.01,8.954,8.954,0,0,1,1.552,5.592Zm-2.529-.287a6.536,6.536,0,0,0-1.066-3.951A3.435,3.435,0,0,0,189.2,14.08a3.718,3.718,0,0,0-3.445,2.037v7.068a3.725,3.725,0,0,0,3.473,2.023,3.419,3.419,0,0,0,2.892-1.442A7.135,7.135,0,0,0,193.191,19.48Zm9.174-10.855v3.582h2.762v1.955h-2.762v9.185a2.053,2.053,0,0,0,.369,1.335,1.554,1.554,0,0,0,1.258.445,6.124,6.124,0,0,0,1.2-.164V27a7.376,7.376,0,0,1-1.941.272,3.15,3.15,0,0,1-2.557-1.025,4.405,4.405,0,0,1-.861-2.912V14.162h-2.693V12.207h2.693V8.625Zm11.854,18.648a6.463,6.463,0,0,1-4.895-1.976,7.332,7.332,0,0,1-1.887-5.284v-.465a8.877,8.877,0,0,1,.841-3.931,6.559,6.559,0,0,1,2.352-2.707,5.912,5.912,0,0,1,3.274-.978,5.54,5.54,0,0,1,4.484,1.9,8.228,8.228,0,0,1,1.6,5.441v1.053H209.967a5.258,5.258,0,0,0,1.278,3.534,4.018,4.018,0,0,0,3.11,1.347,4.405,4.405,0,0,0,2.27-.547,5.7,5.7,0,0,0,1.627-1.449l1.545,1.2A6.212,6.212,0,0,1,214.219,27.273ZM213.9,14.012a3.374,3.374,0,0,0-2.57,1.114,5.416,5.416,0,0,0-1.285,3.124h7.41v-.191a4.817,4.817,0,0,0-1.039-2.987A3.176,3.176,0,0,0,213.9,14.012Z" transform="translate(48 164)" fill="#111"/><path d="M124.947,18.209h-8.354V27h-2.625V7.094H126.3V9.24h-9.707v6.822h8.354ZM131.8,27h-2.529V12.207H131.8ZM129.063,8.283a1.51,1.51,0,0,1,.376-1.039,1.412,1.412,0,0,1,1.114-.424,1.434,1.434,0,0,1,1.121.424,1.494,1.494,0,0,1,.383,1.039,1.445,1.445,0,0,1-.383,1.025,1.46,1.46,0,0,1-1.121.41,1.437,1.437,0,0,1-1.114-.41A1.46,1.46,0,0,1,129.063,8.283Zm9.174,3.924.082,1.859a5.391,5.391,0,0,1,4.43-2.133q4.689,0,4.73,5.291V27h-2.529V17.211a3.405,3.405,0,0,0-.731-2.365,2.931,2.931,0,0,0-2.235-.766,3.65,3.65,0,0,0-2.16.656,4.456,4.456,0,0,0-1.449,1.723V27h-2.529V12.207ZM160.426,27a5.313,5.313,0,0,1-.355-1.559,5.643,5.643,0,0,1-4.211,1.832,5.222,5.222,0,0,1-3.589-1.237,4,4,0,0,1-1.4-3.138,4.182,4.182,0,0,1,1.757-3.589,8.283,8.283,0,0,1,4.942-1.278h2.461V16.869a2.841,2.841,0,0,0-.793-2.112,3.187,3.187,0,0,0-2.338-.786,3.688,3.688,0,0,0-2.27.684,2.014,2.014,0,0,0-.916,1.654H151.17a3.491,3.491,0,0,1,.786-2.14,5.366,5.366,0,0,1,2.133-1.634,7.175,7.175,0,0,1,2.96-.6,5.848,5.848,0,0,1,4.006,1.278,4.611,4.611,0,0,1,1.5,3.521v6.809a8.324,8.324,0,0,0,.52,3.24V27Zm-4.2-1.928a4.445,4.445,0,0,0,2.256-.615,3.721,3.721,0,0,0,1.545-1.6V19.822h-1.982q-4.648,0-4.648,2.721a2.3,2.3,0,0,0,.793,1.859A3.048,3.048,0,0,0,156.229,25.072Zm12.688-12.865L169,14.066a5.391,5.391,0,0,1,4.43-2.133q4.689,0,4.73,5.291V27h-2.529V17.211a3.405,3.405,0,0,0-.731-2.365,2.931,2.931,0,0,0-2.235-.766,3.65,3.65,0,0,0-2.16.656,4.456,4.456,0,0,0-1.449,1.723V27h-2.529V12.207Zm15.436,12.729h8.654V27H181.262V25.141L189.424,14.3h-8.039V12.207H192.6V14Zm17.418,2.338a6.463,6.463,0,0,1-4.895-1.976,7.332,7.332,0,0,1-1.887-5.284v-.465a8.877,8.877,0,0,1,.841-3.931,6.559,6.559,0,0,1,2.352-2.707,5.912,5.912,0,0,1,3.274-.978,5.54,5.54,0,0,1,4.484,1.9,8.228,8.228,0,0,1,1.6,5.441v1.053H197.518a5.258,5.258,0,0,0,1.278,3.534,4.018,4.018,0,0,0,3.11,1.347,4.405,4.405,0,0,0,2.27-.547,5.7,5.7,0,0,0,1.627-1.449l1.545,1.2A6.212,6.212,0,0,1,201.77,27.273Zm-.314-13.262a3.374,3.374,0,0,0-2.57,1.114A5.416,5.416,0,0,0,197.6,18.25h7.41v-.191a4.817,4.817,0,0,0-1.039-2.987A3.176,3.176,0,0,0,201.455,14.012Zm11.4-1.8.082,1.859a5.391,5.391,0,0,1,4.43-2.133q4.689,0,4.73,5.291V27H219.57V17.211a3.405,3.405,0,0,0-.731-2.365,2.931,2.931,0,0,0-2.235-.766,3.65,3.65,0,0,0-2.16.656,4.456,4.456,0,0,0-1.449,1.723V27h-2.529V12.207Z" transform="translate(45 432)" fill="#111"/><path d="M68.613,18.209H60.26V27H57.635V7.094H69.967V9.24H60.26v6.822h8.354Zm9.953,9.064A6.463,6.463,0,0,1,73.672,25.3a7.332,7.332,0,0,1-1.887-5.284v-.465a8.877,8.877,0,0,1,.841-3.931,6.559,6.559,0,0,1,2.352-2.707,5.912,5.912,0,0,1,3.274-.978,5.54,5.54,0,0,1,4.484,1.9,8.228,8.228,0,0,1,1.6,5.441v1.053H74.314a5.258,5.258,0,0,0,1.278,3.534,4.018,4.018,0,0,0,3.11,1.347,4.405,4.405,0,0,0,2.27-.547A5.7,5.7,0,0,0,82.6,23.213l1.545,1.2A6.212,6.212,0,0,1,78.566,27.273Zm-.314-13.262a3.374,3.374,0,0,0-2.57,1.114A5.416,5.416,0,0,0,74.4,18.25h7.41v-.191a4.817,4.817,0,0,0-1.039-2.987A3.176,3.176,0,0,0,78.252,14.012ZM96.395,27a5.313,5.313,0,0,1-.355-1.559,5.643,5.643,0,0,1-4.211,1.832,5.222,5.222,0,0,1-3.589-1.237,4,4,0,0,1-1.4-3.138,4.182,4.182,0,0,1,1.757-3.589,8.283,8.283,0,0,1,4.942-1.278H96V16.869a2.841,2.841,0,0,0-.793-2.112,3.187,3.187,0,0,0-2.338-.786,3.688,3.688,0,0,0-2.27.684,2.014,2.014,0,0,0-.916,1.654H87.139a3.491,3.491,0,0,1,.786-2.14,5.365,5.365,0,0,1,2.133-1.634,7.175,7.175,0,0,1,2.96-.6,5.848,5.848,0,0,1,4.006,1.278,4.611,4.611,0,0,1,1.5,3.521v6.809a8.324,8.324,0,0,0,.52,3.24V27Zm-4.2-1.928a4.445,4.445,0,0,0,2.256-.615A3.721,3.721,0,0,0,96,22.857V19.822H94.016q-4.648,0-4.648,2.721A2.3,2.3,0,0,0,90.16,24.4,3.048,3.048,0,0,0,92.2,25.072ZM105.924,8.625v3.582h2.762v1.955h-2.762v9.185a2.053,2.053,0,0,0,.369,1.335,1.554,1.554,0,0,0,1.258.445,6.124,6.124,0,0,0,1.2-.164V27a7.376,7.376,0,0,1-1.941.272,3.15,3.15,0,0,1-2.557-1.025,4.405,4.405,0,0,1-.861-2.912V14.162H100.7V12.207h2.693V8.625Zm14.848,16.912a5.372,5.372,0,0,1-4.334,1.736,4.6,4.6,0,0,1-3.6-1.374,5.947,5.947,0,0,1-1.251-4.067V12.207h2.529v9.557q0,3.363,2.734,3.363,2.9,0,3.855-2.16V12.207h2.529V27h-2.406Zm13.453-11.061a7.58,7.58,0,0,0-1.244-.1A3.333,3.333,0,0,0,129.6,16.5V27h-2.529V12.207h2.461l.041,1.709a3.938,3.938,0,0,1,3.527-1.982,2.584,2.584,0,0,1,1.121.191Zm8.2,12.8a6.463,6.463,0,0,1-4.895-1.976,7.332,7.332,0,0,1-1.887-5.284v-.465a8.877,8.877,0,0,1,.841-3.931,6.559,6.559,0,0,1,2.352-2.707,5.912,5.912,0,0,1,3.274-.978,5.54,5.54,0,0,1,4.484,1.9,8.228,8.228,0,0,1,1.6,5.441v1.053H138.176a5.258,5.258,0,0,0,1.278,3.534,4.018,4.018,0,0,0,3.11,1.347,4.405,4.405,0,0,0,2.27-.547,5.7,5.7,0,0,0,1.627-1.449l1.545,1.2A6.212,6.212,0,0,1,142.428,27.273Zm-.314-13.262a3.374,3.374,0,0,0-2.57,1.114,5.416,5.416,0,0,0-1.285,3.124h7.41v-.191a4.817,4.817,0,0,0-1.039-2.987A3.176,3.176,0,0,0,142.113,14.012Zm8.395,5.469A8.666,8.666,0,0,1,152.121,14a5.489,5.489,0,0,1,8.34-.294V6h2.529V27h-2.324l-.123-1.586a5.151,5.151,0,0,1-4.225,1.859,5.053,5.053,0,0,1-4.19-2.105,8.764,8.764,0,0,1-1.62-5.5Zm2.529.287a6.561,6.561,0,0,0,1.039,3.938,3.359,3.359,0,0,0,2.871,1.422,3.69,3.69,0,0,0,3.514-2.16V16.172a3.718,3.718,0,0,0-3.486-2.092,3.375,3.375,0,0,0-2.9,1.436A7.224,7.224,0,0,0,153.037,19.768ZM64.484,52.127a12.343,12.343,0,0,1-4.915-2.386,4.558,4.558,0,0,1-1.538-3.493,4.815,4.815,0,0,1,1.88-3.89A7.471,7.471,0,0,1,64.8,40.82a8.155,8.155,0,0,1,3.657.793A6.014,6.014,0,0,1,70.944,43.8a5.594,5.594,0,0,1,.882,3.049H69.188A3.64,3.64,0,0,0,68.039,44a4.67,4.67,0,0,0-3.24-1.036,4.781,4.781,0,0,0-3.028.856A2.856,2.856,0,0,0,60.684,46.2a2.569,2.569,0,0,0,1.032,2.061A10.125,10.125,0,0,0,65.229,49.8a16.3,16.3,0,0,1,3.883,1.539A5.892,5.892,0,0,1,71.19,53.3a5.007,5.007,0,0,1,.677,2.639,4.651,4.651,0,0,1-1.887,3.876,8.044,8.044,0,0,1-5.045,1.456,9.357,9.357,0,0,1-3.828-.786,6.442,6.442,0,0,1-2.741-2.153,5.255,5.255,0,0,1-.964-3.1h2.639a3.428,3.428,0,0,0,1.333,2.851,5.613,5.613,0,0,0,3.562,1.046,5.16,5.16,0,0,0,3.186-.848,2.753,2.753,0,0,0,1.107-2.311A2.7,2.7,0,0,0,68.2,53.706,11.822,11.822,0,0,0,64.484,52.127Zm12.742-5.92.082,1.859a5.391,5.391,0,0,1,4.43-2.133q4.689,0,4.73,5.291V61H83.939V51.211a3.405,3.405,0,0,0-.731-2.365,2.931,2.931,0,0,0-2.235-.766,3.65,3.65,0,0,0-2.16.656,4.456,4.456,0,0,0-1.449,1.723V61H74.834V46.207ZM93.031,61H90.5V46.207h2.529ZM90.3,42.283a1.51,1.51,0,0,1,.376-1.039,1.412,1.412,0,0,1,1.114-.424,1.434,1.434,0,0,1,1.121.424,1.494,1.494,0,0,1,.383,1.039,1.445,1.445,0,0,1-.383,1.025,1.46,1.46,0,0,1-1.121.41,1.437,1.437,0,0,1-1.114-.41A1.46,1.46,0,0,1,90.3,42.283Zm19.277,11.484a8.858,8.858,0,0,1-1.545,5.441,4.952,4.952,0,0,1-4.184,2.064,5.425,5.425,0,0,1-4.238-1.709v7.123H97.078V46.207h2.311l.123,1.641a5.21,5.21,0,0,1,4.293-1.914,5.044,5.044,0,0,1,4.218,2.01,8.954,8.954,0,0,1,1.552,5.592Zm-2.529-.287a6.536,6.536,0,0,0-1.066-3.951,3.435,3.435,0,0,0-2.926-1.449,3.718,3.718,0,0,0-3.445,2.037v7.068a3.725,3.725,0,0,0,3.473,2.023,3.419,3.419,0,0,0,2.892-1.442A7.135,7.135,0,0,0,107.045,53.48Zm18.238.287a8.858,8.858,0,0,1-1.545,5.441,4.952,4.952,0,0,1-4.184,2.064,5.425,5.425,0,0,1-4.238-1.709v7.123h-2.529V46.207H115.1l.123,1.641a5.21,5.21,0,0,1,4.293-1.914,5.044,5.044,0,0,1,4.218,2.01,8.954,8.954,0,0,1,1.552,5.592Zm-2.529-.287a6.536,6.536,0,0,0-1.066-3.951,3.435,3.435,0,0,0-2.926-1.449,3.718,3.718,0,0,0-3.445,2.037v7.068a3.725,3.725,0,0,0,3.473,2.023,3.419,3.419,0,0,0,2.892-1.442A7.135,7.135,0,0,0,122.754,53.48Zm11.881,7.793A6.463,6.463,0,0,1,129.74,59.3a7.332,7.332,0,0,1-1.887-5.284v-.465a8.877,8.877,0,0,1,.841-3.931,6.559,6.559,0,0,1,2.352-2.707,5.912,5.912,0,0,1,3.274-.978,5.54,5.54,0,0,1,4.484,1.9,8.228,8.228,0,0,1,1.6,5.441v1.053H130.383a5.258,5.258,0,0,0,1.278,3.534,4.018,4.018,0,0,0,3.11,1.347,4.405,4.405,0,0,0,2.27-.547,5.7,5.7,0,0,0,1.627-1.449l1.545,1.2A6.212,6.212,0,0,1,134.635,61.273Zm-.314-13.262a3.374,3.374,0,0,0-2.57,1.114,5.416,5.416,0,0,0-1.285,3.124h7.41v-.191a4.817,4.817,0,0,0-1.039-2.987A3.176,3.176,0,0,0,134.32,48.012Zm12.441-5.387v3.582h2.762v1.955h-2.762v9.185a2.053,2.053,0,0,0,.369,1.335,1.554,1.554,0,0,0,1.258.445,6.124,6.124,0,0,0,1.2-.164V61a7.376,7.376,0,0,1-1.941.272,3.15,3.15,0,0,1-2.557-1.025,4.405,4.405,0,0,1-.861-2.912V48.162h-2.693V46.207h2.693V42.625ZM161.09,57.076a1.862,1.862,0,0,0-.772-1.593,7.435,7.435,0,0,0-2.693-.978,12.734,12.734,0,0,1-3.049-.984,4.337,4.337,0,0,1-1.668-1.367,3.27,3.27,0,0,1-.54-1.887,3.837,3.837,0,0,1,1.538-3.076,6.007,6.007,0,0,1,3.931-1.258,6.181,6.181,0,0,1,4.081,1.3,4.125,4.125,0,0,1,1.565,3.322h-2.543a2.283,2.283,0,0,0-.882-1.791,3.3,3.3,0,0,0-2.222-.752,3.458,3.458,0,0,0-2.16.6,1.894,1.894,0,0,0-.779,1.572,1.534,1.534,0,0,0,.725,1.381,8.915,8.915,0,0,0,2.618.889,13.642,13.642,0,0,1,3.069,1.012,4.477,4.477,0,0,1,1.743,1.415,3.479,3.479,0,0,1,.567,2.017,3.786,3.786,0,0,1-1.586,3.179,6.652,6.652,0,0,1-4.115,1.2,7.449,7.449,0,0,1-3.145-.629,5.114,5.114,0,0,1-2.14-1.757,4.234,4.234,0,0,1-.772-2.44h2.529a2.619,2.619,0,0,0,1.019,2.017,3.951,3.951,0,0,0,2.509.745,4.079,4.079,0,0,0,2.3-.581A1.785,1.785,0,0,0,161.09,57.076Z" transform="translate(104 235)" fill="#111"/><path d="M187.336,27H184.7L174.676,11.66V27h-2.639V7.094h2.639L184.725,22.5V7.094h2.611Zm10.4.273a6.463,6.463,0,0,1-4.895-1.976,7.332,7.332,0,0,1-1.887-5.284v-.465a8.877,8.877,0,0,1,.841-3.931,6.559,6.559,0,0,1,2.352-2.707,5.912,5.912,0,0,1,3.274-.978,5.54,5.54,0,0,1,4.484,1.9,8.228,8.228,0,0,1,1.6,5.441v1.053H193.488a5.258,5.258,0,0,0,1.278,3.534,4.018,4.018,0,0,0,3.11,1.347,4.405,4.405,0,0,0,2.27-.547,5.7,5.7,0,0,0,1.627-1.449l1.545,1.2A6.212,6.212,0,0,1,197.74,27.273Zm-.314-13.262a3.374,3.374,0,0,0-2.57,1.114,5.416,5.416,0,0,0-1.285,3.124h7.41v-.191a4.817,4.817,0,0,0-1.039-2.987A3.176,3.176,0,0,0,197.426,14.012Zm22.107,9.5,2.844-11.307h2.529L220.6,27h-2.051l-3.6-11.211L211.453,27H209.4l-4.293-14.793h2.516l2.912,11.074,3.445-11.074h2.037Zm16.557-.437a1.862,1.862,0,0,0-.772-1.593,7.435,7.435,0,0,0-2.693-.978,12.734,12.734,0,0,1-3.049-.984,4.337,4.337,0,0,1-1.668-1.367,3.27,3.27,0,0,1-.54-1.887,3.837,3.837,0,0,1,1.538-3.076,6.007,6.007,0,0,1,3.931-1.258,6.181,6.181,0,0,1,4.081,1.3,4.125,4.125,0,0,1,1.565,3.322h-2.543a2.283,2.283,0,0,0-.882-1.791,3.3,3.3,0,0,0-2.222-.752,3.458,3.458,0,0,0-2.16.6,1.894,1.894,0,0,0-.779,1.572,1.534,1.534,0,0,0,.725,1.381,8.915,8.915,0,0,0,2.618.889,13.642,13.642,0,0,1,3.069,1.012,4.477,4.477,0,0,1,1.743,1.415,3.479,3.479,0,0,1,.567,2.017,3.786,3.786,0,0,1-1.586,3.179,6.652,6.652,0,0,1-4.115,1.2,7.449,7.449,0,0,1-3.145-.629,5.114,5.114,0,0,1-2.14-1.757,4.234,4.234,0,0,1-.772-2.44h2.529a2.619,2.619,0,0,0,1.019,2.017,3.951,3.951,0,0,0,2.509.745,4.079,4.079,0,0,0,2.3-.581A1.785,1.785,0,0,0,236.09,23.076Z" transform="translate(29 519)" fill="#111"/><path d="M57.879,21.791h-8.34L47.666,27H44.959l7.6-19.906h2.3L62.473,27H59.779Zm-7.547-2.146H57.1l-3.391-9.311Zm16.816-7.437.082,1.859a5.391,5.391,0,0,1,4.43-2.133q4.689,0,4.73,5.291V27H73.861V17.211a3.405,3.405,0,0,0-.731-2.365,2.931,2.931,0,0,0-2.235-.766,3.65,3.65,0,0,0-2.16.656,4.456,4.456,0,0,0-1.449,1.723V27H64.756V12.207ZM93.3,23.514l2.844-11.307h2.529L94.369,27H92.318l-3.6-11.211L85.223,27H83.172L78.879,12.207h2.516l2.912,11.074,3.445-11.074h2.037Zm14.082,3.76A6.463,6.463,0,0,1,102.49,25.3a7.332,7.332,0,0,1-1.887-5.284v-.465a8.877,8.877,0,0,1,.841-3.931,6.559,6.559,0,0,1,2.352-2.707,5.912,5.912,0,0,1,3.274-.978,5.54,5.54,0,0,1,4.484,1.9,8.228,8.228,0,0,1,1.6,5.441v1.053H103.133a5.258,5.258,0,0,0,1.278,3.534,4.018,4.018,0,0,0,3.11,1.347,4.405,4.405,0,0,0,2.27-.547,5.7,5.7,0,0,0,1.627-1.449l1.545,1.2A6.212,6.212,0,0,1,107.385,27.273Zm-.314-13.262a3.374,3.374,0,0,0-2.57,1.114,5.416,5.416,0,0,0-1.285,3.124h7.41v-.191a4.817,4.817,0,0,0-1.039-2.987A3.176,3.176,0,0,0,107.07,14.012Zm11.4-1.8.082,1.859a5.391,5.391,0,0,1,4.43-2.133q4.689,0,4.73,5.291V27h-2.529V17.211a3.405,3.405,0,0,0-.731-2.365,2.931,2.931,0,0,0-2.235-.766,3.65,3.65,0,0,0-2.16.656,4.456,4.456,0,0,0-1.449,1.723V27H116.08V12.207Zm12.441,7.273A8.666,8.666,0,0,1,132.527,14a5.489,5.489,0,0,1,8.34-.294V6H143.4V27h-2.324l-.123-1.586a5.151,5.151,0,0,1-4.225,1.859,5.053,5.053,0,0,1-4.19-2.105,8.764,8.764,0,0,1-1.62-5.5Zm2.529.287a6.561,6.561,0,0,0,1.039,3.938,3.359,3.359,0,0,0,2.871,1.422,3.69,3.69,0,0,0,3.514-2.16V16.172a3.718,3.718,0,0,0-3.486-2.092,3.375,3.375,0,0,0-2.9,1.436A7.224,7.224,0,0,0,133.443,19.768Zm23.01,5.77a5.372,5.372,0,0,1-4.334,1.736,4.6,4.6,0,0,1-3.6-1.374,5.947,5.947,0,0,1-1.251-4.067V12.207h2.529v9.557q0,3.363,2.734,3.363,2.9,0,3.855-2.16V12.207h2.529V27h-2.406Zm8.7-13.33.082,1.859a5.391,5.391,0,0,1,4.43-2.133q4.689,0,4.73,5.291V27h-2.529V17.211a3.405,3.405,0,0,0-.731-2.365,2.931,2.931,0,0,0-2.235-.766,3.65,3.65,0,0,0-2.16.656,4.456,4.456,0,0,0-1.449,1.723V27h-2.529V12.207ZM177.6,19.48a8.694,8.694,0,0,1,1.6-5.5,5.515,5.515,0,0,1,8.463-.13l.123-1.641H190.1V26.645a6.018,6.018,0,0,1-1.7,4.525,6.281,6.281,0,0,1-4.573,1.654,7.608,7.608,0,0,1-3.131-.684,5.389,5.389,0,0,1-2.338-1.873l1.313-1.518a4.946,4.946,0,0,0,3.979,2.01,3.875,3.875,0,0,0,2.878-1.039,3.971,3.971,0,0,0,1.032-2.926V25.523a5.2,5.2,0,0,1-4.143,1.75,5.053,5.053,0,0,1-4.2-2.092A9.141,9.141,0,0,1,177.6,19.48Zm2.543.287a6.633,6.633,0,0,0,1.025,3.931,3.332,3.332,0,0,0,2.871,1.429,3.7,3.7,0,0,0,3.514-2.174V16.2a3.748,3.748,0,0,0-3.486-2.119,3.362,3.362,0,0,0-2.885,1.436A7.224,7.224,0,0,0,180.146,19.768Z" transform="translate(77 338)" fill="#111"/><path d="M55.406,20.684a7.324,7.324,0,0,1-2.331,4.874,7.639,7.639,0,0,1-5.216,1.716,7.015,7.015,0,0,1-5.653-2.529,10.176,10.176,0,0,1-2.126-6.768V16.063a11.342,11.342,0,0,1,.991-4.881,7.4,7.4,0,0,1,2.81-3.233A7.823,7.823,0,0,1,48.092,6.82a7.193,7.193,0,0,1,5.086,1.771,7.412,7.412,0,0,1,2.229,4.9H52.768a5.719,5.719,0,0,0-1.483-3.456,4.488,4.488,0,0,0-3.192-1.07,4.7,4.7,0,0,0-3.944,1.861,8.543,8.543,0,0,0-1.429,5.3v1.929a8.782,8.782,0,0,0,1.354,5.159,4.373,4.373,0,0,0,3.787,1.916,5.051,5.051,0,0,0,3.356-.991,5.5,5.5,0,0,0,1.552-3.452Zm6.207-1.477V27H58.988V7.094H66.33a7.376,7.376,0,0,1,5.12,1.668A5.655,5.655,0,0,1,73.3,13.178a5.58,5.58,0,0,1-1.812,4.464A7.706,7.706,0,0,1,66.3,19.207Zm0-2.146H66.33a4.716,4.716,0,0,0,3.227-.993A3.631,3.631,0,0,0,70.678,13.2a3.751,3.751,0,0,0-1.121-2.849A4.418,4.418,0,0,0,66.48,9.24H61.613Zm29.682,3.623a7.324,7.324,0,0,1-2.331,4.874,7.639,7.639,0,0,1-5.216,1.716,7.015,7.015,0,0,1-5.653-2.529,10.176,10.176,0,0,1-2.126-6.768V16.063a11.342,11.342,0,0,1,.991-4.881,7.4,7.4,0,0,1,2.81-3.233A7.823,7.823,0,0,1,83.98,6.82a7.193,7.193,0,0,1,5.086,1.771,7.412,7.412,0,0,1,2.229,4.9H88.656a5.719,5.719,0,0,0-1.483-3.456,4.488,4.488,0,0,0-3.192-1.07,4.7,4.7,0,0,0-3.944,1.861,8.543,8.543,0,0,0-1.429,5.3v1.929a8.782,8.782,0,0,0,1.354,5.159,4.373,4.373,0,0,0,3.787,1.916,5.051,5.051,0,0,0,3.356-.991,5.5,5.5,0,0,0,1.552-3.452Zm19.072-2.57-9.037-3.541v-2.6l11.676,5.168v2L101.33,24.32V21.7Zm13.508-1.094,1.012-9.926h10.2V9.432h-8.053l-.6,5.428A6.424,6.424,0,0,1,129.754,14a5.492,5.492,0,0,1,4.32,1.8,7.046,7.046,0,0,1,1.6,4.86,6.8,6.8,0,0,1-1.661,4.847,6.054,6.054,0,0,1-4.642,1.771,6.292,6.292,0,0,1-4.307-1.463,5.839,5.839,0,0,1-1.9-4.047h2.393a4.017,4.017,0,0,0,1.217,2.577,3.783,3.783,0,0,0,2.6.868,3.413,3.413,0,0,0,2.769-1.2,5.03,5.03,0,0,0,1-3.322,4.616,4.616,0,0,0-1.087-3.206,3.7,3.7,0,0,0-2.892-1.21,4.17,4.17,0,0,0-2.6.725l-.67.547Zm33.4.779h-8.627v7.055H158.67V27H146.023V7.094h12.51V9.24h-9.885v6.412h8.627Zm13.166,7.738a5.372,5.372,0,0,1-4.334,1.736,4.6,4.6,0,0,1-3.6-1.374,5.947,5.947,0,0,1-1.251-4.067V12.207h2.529v9.557q0,3.363,2.734,3.363,2.9,0,3.855-2.16V12.207H172.9V27H170.5Zm13.453-11.061a7.58,7.58,0,0,0-1.244-.1,3.333,3.333,0,0,0-3.377,2.119V27h-2.529V12.207h2.461l.041,1.709a3.938,3.938,0,0,1,3.527-1.982,2.584,2.584,0,0,1,1.121.191Zm1.381,4.99a8.738,8.738,0,0,1,.854-3.91,6.374,6.374,0,0,1,2.379-2.68,6.476,6.476,0,0,1,3.479-.943,6.238,6.238,0,0,1,4.888,2.092,8.048,8.048,0,0,1,1.866,5.564v.178a8.814,8.814,0,0,1-.827,3.876,6.281,6.281,0,0,1-2.365,2.673,6.55,6.55,0,0,1-3.534.957,6.223,6.223,0,0,1-4.874-2.092,8.007,8.007,0,0,1-1.866-5.537Zm2.543.3a6.329,6.329,0,0,0,1.142,3.951,3.869,3.869,0,0,0,6.118-.021,6.92,6.92,0,0,0,1.135-4.231,6.317,6.317,0,0,0-1.155-3.944,3.673,3.673,0,0,0-3.069-1.511,3.632,3.632,0,0,0-3.021,1.49A6.869,6.869,0,0,0,187.818,19.768Z" transform="translate(69 606)" fill="#111"/><path d="M137.7,23.514l5.688-16.42h2.871L138.873,27h-2.324L129.18,7.094h2.857ZM151.273,27h-2.529V12.207h2.529ZM148.539,8.283a1.51,1.51,0,0,1,.376-1.039,1.412,1.412,0,0,1,1.114-.424,1.434,1.434,0,0,1,1.121.424,1.494,1.494,0,0,1,.383,1.039,1.445,1.445,0,0,1-.383,1.025,1.46,1.46,0,0,1-1.121.41,1.437,1.437,0,0,1-1.114-.41A1.46,1.46,0,0,1,148.539,8.283Zm6.166,11.2A8.666,8.666,0,0,1,156.318,14a5.489,5.489,0,0,1,8.34-.294V6h2.529V27h-2.324l-.123-1.586a5.151,5.151,0,0,1-4.225,1.859,5.053,5.053,0,0,1-4.19-2.105,8.764,8.764,0,0,1-1.62-5.5Zm2.529.287a6.561,6.561,0,0,0,1.039,3.938,3.359,3.359,0,0,0,2.871,1.422,3.69,3.69,0,0,0,3.514-2.16V16.172a3.718,3.718,0,0,0-3.486-2.092,3.375,3.375,0,0,0-2.9,1.436A7.224,7.224,0,0,0,157.234,19.768Zm20.016,7.506a6.463,6.463,0,0,1-4.895-1.976,7.332,7.332,0,0,1-1.887-5.284v-.465a8.877,8.877,0,0,1,.841-3.931,6.559,6.559,0,0,1,2.352-2.707,5.912,5.912,0,0,1,3.274-.978,5.54,5.54,0,0,1,4.484,1.9,8.228,8.228,0,0,1,1.6,5.441v1.053H173a5.258,5.258,0,0,0,1.278,3.534,4.018,4.018,0,0,0,3.11,1.347,4.405,4.405,0,0,0,2.27-.547,5.7,5.7,0,0,0,1.627-1.449l1.545,1.2A6.212,6.212,0,0,1,177.25,27.273Zm-.314-13.262a3.374,3.374,0,0,0-2.57,1.114,5.416,5.416,0,0,0-1.285,3.124h7.41v-.191a4.817,4.817,0,0,0-1.039-2.987A3.176,3.176,0,0,0,176.936,14.012Zm8.34,5.455a8.738,8.738,0,0,1,.854-3.91,6.374,6.374,0,0,1,2.379-2.68,6.476,6.476,0,0,1,3.479-.943,6.238,6.238,0,0,1,4.888,2.092,8.048,8.048,0,0,1,1.866,5.564v.178a8.814,8.814,0,0,1-.827,3.876,6.281,6.281,0,0,1-2.365,2.673,6.55,6.55,0,0,1-3.534.957,6.223,6.223,0,0,1-4.874-2.092,8.007,8.007,0,0,1-1.866-5.537Zm2.543.3a6.329,6.329,0,0,0,1.142,3.951,3.869,3.869,0,0,0,6.118-.021,6.92,6.92,0,0,0,1.135-4.231,6.317,6.317,0,0,0-1.155-3.944,3.673,3.673,0,0,0-3.069-1.511,3.632,3.632,0,0,0-3.021,1.49A6.869,6.869,0,0,0,187.818,19.768Z" transform="translate(69 693)" fill="#111"/><path d="M135.879,7.094l6.508,16.242,6.508-16.242h3.4V27h-2.625V19.248l.246-8.367L143.385,27h-2.01l-6.521-16.078.26,8.326V27h-2.625V7.094ZM165.67,27a5.313,5.313,0,0,1-.355-1.559,5.643,5.643,0,0,1-4.211,1.832,5.222,5.222,0,0,1-3.589-1.237,4,4,0,0,1-1.4-3.138,4.182,4.182,0,0,1,1.757-3.589,8.283,8.283,0,0,1,4.942-1.278h2.461V16.869a2.841,2.841,0,0,0-.793-2.112,3.187,3.187,0,0,0-2.338-.786,3.688,3.688,0,0,0-2.27.684,2.014,2.014,0,0,0-.916,1.654h-2.543a3.491,3.491,0,0,1,.786-2.14,5.366,5.366,0,0,1,2.133-1.634,7.175,7.175,0,0,1,2.96-.6,5.848,5.848,0,0,1,4.006,1.278,4.611,4.611,0,0,1,1.5,3.521v6.809a8.324,8.324,0,0,0,.52,3.24V27Zm-4.2-1.928a4.445,4.445,0,0,0,2.256-.615,3.721,3.721,0,0,0,1.545-1.6V19.822h-1.982q-4.648,0-4.648,2.721a2.3,2.3,0,0,0,.793,1.859A3.048,3.048,0,0,0,161.473,25.072Zm22.791-5.3a8.858,8.858,0,0,1-1.545,5.441,4.952,4.952,0,0,1-4.184,2.064,5.425,5.425,0,0,1-4.238-1.709v7.123h-2.529V12.207h2.311l.123,1.641a5.21,5.21,0,0,1,4.293-1.914,5.044,5.044,0,0,1,4.218,2.01,8.954,8.954,0,0,1,1.552,5.592Zm-2.529-.287a6.536,6.536,0,0,0-1.066-3.951,3.435,3.435,0,0,0-2.926-1.449,3.718,3.718,0,0,0-3.445,2.037v7.068a3.725,3.725,0,0,0,3.473,2.023,3.419,3.419,0,0,0,2.892-1.442A7.135,7.135,0,0,0,181.734,19.48Zm14.355,3.6a1.862,1.862,0,0,0-.772-1.593,7.435,7.435,0,0,0-2.693-.978,12.734,12.734,0,0,1-3.049-.984,4.337,4.337,0,0,1-1.668-1.367,3.27,3.27,0,0,1-.54-1.887,3.837,3.837,0,0,1,1.538-3.076,6.007,6.007,0,0,1,3.931-1.258,6.181,6.181,0,0,1,4.081,1.3,4.125,4.125,0,0,1,1.565,3.322h-2.543a2.283,2.283,0,0,0-.882-1.791,3.3,3.3,0,0,0-2.222-.752,3.458,3.458,0,0,0-2.16.6,1.894,1.894,0,0,0-.779,1.572,1.534,1.534,0,0,0,.725,1.381,8.915,8.915,0,0,0,2.618.889,13.642,13.642,0,0,1,3.069,1.012,4.477,4.477,0,0,1,1.743,1.415,3.479,3.479,0,0,1,.567,2.017,3.786,3.786,0,0,1-1.586,3.179,6.652,6.652,0,0,1-4.115,1.2,7.449,7.449,0,0,1-3.145-.629,5.114,5.114,0,0,1-2.14-1.757,4.234,4.234,0,0,1-.772-2.44h2.529a2.619,2.619,0,0,0,1.019,2.017,3.951,3.951,0,0,0,2.509.745,4.079,4.079,0,0,0,2.3-.581A1.785,1.785,0,0,0,196.09,23.076Z" transform="translate(69 781)" fill="#111"/><path d="M131.189,27V7.094H137.7a7.554,7.554,0,0,1,4.874,1.34,4.829,4.829,0,0,1,1.634,3.965,4.043,4.043,0,0,1-.793,2.468,5.141,5.141,0,0,1-2.16,1.661,4.617,4.617,0,0,1,2.55,1.716,4.924,4.924,0,0,1,.937,3.015A5.324,5.324,0,0,1,143,25.469,7.181,7.181,0,0,1,138.094,27Zm2.625-9.311v7.164h4.334a4.173,4.173,0,0,0,2.892-.95,3.337,3.337,0,0,0,1.06-2.618q0-3.6-3.91-3.6Zm0-2.105h3.965a4.156,4.156,0,0,0,2.755-.863,2.894,2.894,0,0,0,1.032-2.343,2.846,2.846,0,0,0-.957-2.391A4.7,4.7,0,0,0,137.7,9.24h-3.883ZM150.973,27h-2.529V12.207h2.529ZM148.238,8.283a1.51,1.51,0,0,1,.376-1.039,1.412,1.412,0,0,1,1.114-.424,1.434,1.434,0,0,1,1.121.424,1.494,1.494,0,0,1,.383,1.039,1.445,1.445,0,0,1-.383,1.025,1.46,1.46,0,0,1-1.121.41,1.437,1.437,0,0,1-1.114-.41A1.46,1.46,0,0,1,148.238,8.283ZM157.768,27h-2.529V6h2.529Zm3.432-7.52A8.666,8.666,0,0,1,162.813,14a5.489,5.489,0,0,1,8.34-.294V6h2.529V27h-2.324l-.123-1.586a5.151,5.151,0,0,1-4.225,1.859,5.053,5.053,0,0,1-4.19-2.105,8.764,8.764,0,0,1-1.62-5.5Zm2.529.287a6.561,6.561,0,0,0,1.039,3.938,3.359,3.359,0,0,0,2.871,1.422,3.69,3.69,0,0,0,3.514-2.16V16.172a3.718,3.718,0,0,0-3.486-2.092,3.375,3.375,0,0,0-2.9,1.436A7.224,7.224,0,0,0,163.729,19.768Zm20.016,7.506A6.463,6.463,0,0,1,178.85,25.3a7.332,7.332,0,0,1-1.887-5.284v-.465a8.877,8.877,0,0,1,.841-3.931,6.559,6.559,0,0,1,2.352-2.707,5.912,5.912,0,0,1,3.274-.978,5.54,5.54,0,0,1,4.484,1.9,8.228,8.228,0,0,1,1.6,5.441v1.053H179.492a5.258,5.258,0,0,0,1.278,3.534,4.018,4.018,0,0,0,3.11,1.347,4.405,4.405,0,0,0,2.27-.547,5.7,5.7,0,0,0,1.627-1.449l1.545,1.2A6.212,6.212,0,0,1,183.744,27.273Zm-.314-13.262a3.374,3.374,0,0,0-2.57,1.114,5.416,5.416,0,0,0-1.285,3.124h7.41v-.191a4.817,4.817,0,0,0-1.039-2.987A3.176,3.176,0,0,0,183.43,14.012Zm16.16.465a7.58,7.58,0,0,0-1.244-.1,3.333,3.333,0,0,0-3.377,2.119V27h-2.529V12.207H194.9l.041,1.709a3.938,3.938,0,0,1,3.527-1.982,2.584,2.584,0,0,1,1.121.191Z" transform="translate(69 869)" fill="#111"/><path d="M149.086,7.094h2.639v14.1a5.839,5.839,0,0,1-1.716,4.471,6.4,6.4,0,0,1-4.573,1.613,6.583,6.583,0,0,1-4.621-1.518A5.48,5.48,0,0,1,139.16,21.5h2.625a3.3,3.3,0,0,0,3.65,3.623,3.52,3.52,0,0,0,2.632-1.025,3.972,3.972,0,0,0,1.019-2.871Zm6.043,12.373a8.738,8.738,0,0,1,.854-3.91,6.374,6.374,0,0,1,2.379-2.68,6.476,6.476,0,0,1,3.479-.943,6.238,6.238,0,0,1,4.888,2.092A8.048,8.048,0,0,1,168.6,19.59v.178a8.814,8.814,0,0,1-.827,3.876,6.281,6.281,0,0,1-2.365,2.673,6.55,6.55,0,0,1-3.534.957A6.223,6.223,0,0,1,157,25.182a8.007,8.007,0,0,1-1.866-5.537Zm2.543.3a6.329,6.329,0,0,0,1.142,3.951,3.869,3.869,0,0,0,6.118-.021,6.92,6.92,0,0,0,1.135-4.231,6.317,6.317,0,0,0-1.155-3.944,3.673,3.673,0,0,0-3.069-1.511,3.632,3.632,0,0,0-3.021,1.49A6.869,6.869,0,0,0,157.672,19.768Zm26.619,0a8.8,8.8,0,0,1-1.559,5.448,4.98,4.98,0,0,1-4.184,2.058,5.157,5.157,0,0,1-4.334-1.982L174.092,27h-2.324V6H174.3v7.834a5.128,5.128,0,0,1,4.225-1.9,5.01,5.01,0,0,1,4.231,2.037,9.06,9.06,0,0,1,1.538,5.578Zm-2.529-.287a6.835,6.835,0,0,0-1-3.992,3.3,3.3,0,0,0-2.871-1.408,3.713,3.713,0,0,0-3.6,2.324v6.4a3.817,3.817,0,0,0,3.623,2.324,3.286,3.286,0,0,0,2.83-1.408A7.268,7.268,0,0,0,181.762,19.48Zm14.328,3.6a1.862,1.862,0,0,0-.772-1.593,7.435,7.435,0,0,0-2.693-.978,12.734,12.734,0,0,1-3.049-.984,4.337,4.337,0,0,1-1.668-1.367,3.27,3.27,0,0,1-.54-1.887,3.837,3.837,0,0,1,1.538-3.076,6.007,6.007,0,0,1,3.931-1.258,6.181,6.181,0,0,1,4.081,1.3,4.125,4.125,0,0,1,1.565,3.322h-2.543a2.283,2.283,0,0,0-.882-1.791,3.3,3.3,0,0,0-2.222-.752,3.458,3.458,0,0,0-2.16.6,1.894,1.894,0,0,0-.779,1.572,1.534,1.534,0,0,0,.725,1.381,8.915,8.915,0,0,0,2.618.889,13.642,13.642,0,0,1,3.069,1.012,4.477,4.477,0,0,1,1.743,1.415,3.479,3.479,0,0,1,.567,2.017,3.786,3.786,0,0,1-1.586,3.179,6.652,6.652,0,0,1-4.115,1.2,7.449,7.449,0,0,1-3.145-.629,5.114,5.114,0,0,1-2.14-1.757,4.234,4.234,0,0,1-.772-2.44h2.529a2.619,2.619,0,0,0,1.019,2.017,3.951,3.951,0,0,0,2.509.745,4.079,4.079,0,0,0,2.3-.581A1.785,1.785,0,0,0,196.09,23.076Z" transform="translate(69 957)" fill="#111"/><path d="M145.039,18.209h-8.354V27h-2.625V7.094h12.332V9.24h-9.707v6.822h8.354ZM151.889,27h-2.529V6h2.529Zm13.18-1.463a5.372,5.372,0,0,1-4.334,1.736,4.6,4.6,0,0,1-3.6-1.374,5.947,5.947,0,0,1-1.251-4.067V12.207h2.529v9.557q0,3.363,2.734,3.363,2.9,0,3.855-2.16V12.207h2.529V27h-2.406Zm-7.7-17.288a1.5,1.5,0,0,1,.376-1.037,1.42,1.42,0,0,1,1.114-.419,1.442,1.442,0,0,1,1.121.419,1.48,1.48,0,0,1,.383,1.037,1.371,1.371,0,0,1-1.5,1.442,1.433,1.433,0,0,1-1.114-.412A1.471,1.471,0,0,1,157.371,8.249Zm5.879.027a1.521,1.521,0,0,1,.376-1.044,1.408,1.408,0,0,1,1.114-.426,1.43,1.43,0,0,1,1.121.426,1.505,1.505,0,0,1,.383,1.044,1.371,1.371,0,0,1-1.5,1.442,1.433,1.433,0,0,1-1.114-.412A1.471,1.471,0,0,1,163.25,8.276Zm7.52,11.2a8.694,8.694,0,0,1,1.6-5.5,5.515,5.515,0,0,1,8.463-.13l.123-1.641h2.311V26.645a6.018,6.018,0,0,1-1.7,4.525,6.281,6.281,0,0,1-4.573,1.654,7.608,7.608,0,0,1-3.131-.684,5.389,5.389,0,0,1-2.338-1.873l1.313-1.518a4.946,4.946,0,0,0,3.979,2.01,3.875,3.875,0,0,0,2.878-1.039,3.971,3.971,0,0,0,1.032-2.926V25.523a5.2,5.2,0,0,1-4.143,1.75,5.053,5.053,0,0,1-4.2-2.092A9.141,9.141,0,0,1,170.77,19.48Zm2.543.287a6.633,6.633,0,0,0,1.025,3.931,3.332,3.332,0,0,0,2.871,1.429,3.7,3.7,0,0,0,3.514-2.174V16.2a3.748,3.748,0,0,0-3.486-2.119,3.362,3.362,0,0,0-2.885,1.436A7.224,7.224,0,0,0,173.313,19.768Zm19.906,7.506a6.463,6.463,0,0,1-4.895-1.976,7.332,7.332,0,0,1-1.887-5.284v-.465a8.877,8.877,0,0,1,.841-3.931,6.559,6.559,0,0,1,2.352-2.707,5.912,5.912,0,0,1,3.274-.978,5.54,5.54,0,0,1,4.484,1.9,8.228,8.228,0,0,1,1.6,5.441v1.053H188.967a5.258,5.258,0,0,0,1.278,3.534,4.018,4.018,0,0,0,3.11,1.347,4.405,4.405,0,0,0,2.27-.547,5.7,5.7,0,0,0,1.627-1.449l1.545,1.2A6.212,6.212,0,0,1,193.219,27.273ZM192.9,14.012a3.374,3.374,0,0,0-2.57,1.114,5.416,5.416,0,0,0-1.285,3.124h7.41v-.191a4.817,4.817,0,0,0-1.039-2.987A3.176,3.176,0,0,0,192.9,14.012Z" transform="translate(69 1045)" fill="#111"/></g><line x2="1360" transform="translate(0.5 1128)" fill="none" stroke="#e3e3e3" stroke-width="2"/><g transform="translate(2)"><path d="M10.729,19.576H4.058V17.512h6.672ZM21.243,27H18.7V10.143l-5.1,1.873v-2.3L20.847,7h.4Zm8.572-9.98,1.012-9.926h10.2V9.432H32.974l-.6,5.428A6.424,6.424,0,0,1,35.694,14a5.492,5.492,0,0,1,4.32,1.8,7.046,7.046,0,0,1,1.6,4.86A6.8,6.8,0,0,1,39.953,25.5a6.054,6.054,0,0,1-4.642,1.771A6.292,6.292,0,0,1,31,25.811a5.839,5.839,0,0,1-1.9-4.047H31.5a4.017,4.017,0,0,0,1.217,2.577,3.783,3.783,0,0,0,2.6.868,3.413,3.413,0,0,0,2.769-1.2,5.03,5.03,0,0,0,1-3.322A4.616,4.616,0,0,0,38,17.478a3.7,3.7,0,0,0-2.892-1.21,4.17,4.17,0,0,0-2.6.725l-.67.547ZM44.554,30.965l-1.436-.984a6.6,6.6,0,0,0,1.34-3.691V24.006h2.475v1.982a6.227,6.227,0,0,1-.677,2.762A6.466,6.466,0,0,1,44.554,30.965Zm17.8-12.455q0,4.443-1.518,6.6a5.4,5.4,0,0,1-4.744,2.16,5.437,5.437,0,0,1-4.717-2.112q-1.531-2.112-1.586-6.31V15.475q0-4.389,1.518-6.521A5.439,5.439,0,0,1,56.065,6.82,5.488,5.488,0,0,1,60.8,8.878q1.518,2.058,1.559,6.351Zm-2.529-3.459a9.268,9.268,0,0,0-.9-4.683A3.106,3.106,0,0,0,56.065,8.9a3.065,3.065,0,0,0-2.83,1.463,9.049,9.049,0,0,0-.916,4.5v4.047a9.417,9.417,0,0,0,.937,4.765,3.1,3.1,0,0,0,2.837,1.538,3.057,3.057,0,0,0,2.782-1.449,9.076,9.076,0,0,0,.95-4.566Zm5.551-4.129a4.039,4.039,0,0,1,1.142-2.953,4.289,4.289,0,0,1,5.879.007A4.179,4.179,0,0,1,73.524,11v.971a3.987,3.987,0,0,1-1.142,2.946,3.936,3.936,0,0,1-2.905,1.142,4.022,4.022,0,0,1-2.939-1.142,4.071,4.071,0,0,1-1.162-3.042Zm1.887,1.047a2.587,2.587,0,0,0,.6,1.761,2.03,2.03,0,0,0,1.613.692,1.99,1.99,0,0,0,1.565-.671,2.672,2.672,0,0,0,.595-1.836v-1a2.652,2.652,0,0,0-.588-1.768,2.18,2.18,0,0,0-3.2,0,2.735,2.735,0,0,0-.588,1.823Zm7.807,10.15a4.016,4.016,0,0,1,1.142-2.946,4.318,4.318,0,0,1,5.872-.007,4.121,4.121,0,0,1,1.148,3.049v.971a4.016,4.016,0,0,1-1.142,2.946,3.928,3.928,0,0,1-2.919,1.155,4.022,4.022,0,0,1-2.939-1.142A4.071,4.071,0,0,1,75.069,23.1Zm1.887,1.061a2.607,2.607,0,0,0,.6,1.774,2.03,2.03,0,0,0,1.613.692,1.976,1.976,0,0,0,1.572-.678,2.718,2.718,0,0,0,.588-1.843V22.111a2.6,2.6,0,0,0-.595-1.768,2.186,2.186,0,0,0-3.172-.007,2.638,2.638,0,0,0-.608,1.829Zm-6.9,2.316-1.436-.9L78.337,9.035l1.436.9Z" transform="translate(238 1148)" fill="#888"/></g><g transform="translate(354)"><line y2="968" transform="translate(-74 160)" fill="none" stroke="#e3e3e3" stroke-width="2"/><path d="M10.729,19.576H4.058V17.512h6.672ZM21.243,27H18.7V10.143l-5.1,1.873v-2.3L20.847,7h.4Zm19.893-8.49q0,4.443-1.518,6.6a5.4,5.4,0,0,1-4.744,2.16,5.437,5.437,0,0,1-4.717-2.112q-1.531-2.112-1.586-6.31V15.475q0-4.389,1.518-6.521A5.439,5.439,0,0,1,34.847,6.82a5.488,5.488,0,0,1,4.73,2.058q1.518,2.058,1.559,6.351Zm-2.529-3.459a9.268,9.268,0,0,0-.9-4.683A3.106,3.106,0,0,0,34.847,8.9a3.065,3.065,0,0,0-2.83,1.463,9.049,9.049,0,0,0-.916,4.5v4.047a9.417,9.417,0,0,0,.937,4.765,3.1,3.1,0,0,0,2.837,1.538,3.057,3.057,0,0,0,2.782-1.449,9.076,9.076,0,0,0,.95-4.566Zm5.947,15.914-1.436-.984a6.6,6.6,0,0,0,1.34-3.691V24.006h2.475v1.982a6.227,6.227,0,0,1-.677,2.762A6.466,6.466,0,0,1,44.554,30.965Zm17.8-12.455q0,4.443-1.518,6.6a5.4,5.4,0,0,1-4.744,2.16,5.437,5.437,0,0,1-4.717-2.112q-1.531-2.112-1.586-6.31V15.475q0-4.389,1.518-6.521A5.439,5.439,0,0,1,56.065,6.82,5.488,5.488,0,0,1,60.8,8.878q1.518,2.058,1.559,6.351Zm-2.529-3.459a9.268,9.268,0,0,0-.9-4.683A3.106,3.106,0,0,0,56.065,8.9a3.065,3.065,0,0,0-2.83,1.463,9.049,9.049,0,0,0-.916,4.5v4.047a9.417,9.417,0,0,0,.937,4.765,3.1,3.1,0,0,0,2.837,1.538,3.057,3.057,0,0,0,2.782-1.449,9.076,9.076,0,0,0,.95-4.566Zm5.551-4.129a4.039,4.039,0,0,1,1.142-2.953,4.289,4.289,0,0,1,5.879.007A4.179,4.179,0,0,1,73.524,11v.971a3.987,3.987,0,0,1-1.142,2.946,3.936,3.936,0,0,1-2.905,1.142,4.022,4.022,0,0,1-2.939-1.142,4.071,4.071,0,0,1-1.162-3.042Zm1.887,1.047a2.587,2.587,0,0,0,.6,1.761,2.03,2.03,0,0,0,1.613.692,1.99,1.99,0,0,0,1.565-.671,2.672,2.672,0,0,0,.595-1.836v-1a2.652,2.652,0,0,0-.588-1.768,2.18,2.18,0,0,0-3.2,0,2.735,2.735,0,0,0-.588,1.823Zm7.807,10.15a4.016,4.016,0,0,1,1.142-2.946,4.318,4.318,0,0,1,5.872-.007,4.121,4.121,0,0,1,1.148,3.049v.971a4.016,4.016,0,0,1-1.142,2.946,3.928,3.928,0,0,1-2.919,1.155,4.022,4.022,0,0,1-2.939-1.142A4.071,4.071,0,0,1,75.069,23.1Zm1.887,1.061a2.607,2.607,0,0,0,.6,1.774,2.03,2.03,0,0,0,1.613.692,1.976,1.976,0,0,0,1.572-.678,2.718,2.718,0,0,0,.588-1.843V22.111a2.6,2.6,0,0,0-.595-1.768,2.186,2.186,0,0,0-3.172-.007,2.638,2.638,0,0,0-.608,1.829Zm-6.9,2.316-1.436-.9L78.337,9.035l1.436.9Z" transform="translate(46 1148)" fill="#888"/></g><g transform="translate(706)"><line y2="968" transform="translate(-266 160)" fill="none" stroke="#e3e3e3" stroke-width="2"/><path d="M10.591,19.576H3.919V17.512h6.672Zm3.363-2.557,1.012-9.926h10.2V9.432H17.112l-.6,5.428A6.424,6.424,0,0,1,19.833,14a5.492,5.492,0,0,1,4.32,1.8,7.046,7.046,0,0,1,1.6,4.86A6.8,6.8,0,0,1,24.092,25.5a6.054,6.054,0,0,1-4.642,1.771,6.292,6.292,0,0,1-4.307-1.463,5.839,5.839,0,0,1-1.9-4.047h2.393a4.017,4.017,0,0,0,1.217,2.577,3.783,3.783,0,0,0,2.6.868,3.413,3.413,0,0,0,2.769-1.2,5.03,5.03,0,0,0,1-3.322,4.616,4.616,0,0,0-1.087-3.206,3.7,3.7,0,0,0-2.892-1.21,4.17,4.17,0,0,0-2.6.725l-.67.547ZM28.692,30.965l-1.436-.984a6.6,6.6,0,0,0,1.34-3.691V24.006h2.475v1.982a6.227,6.227,0,0,1-.677,2.762A6.466,6.466,0,0,1,28.692,30.965Zm17.8-12.455q0,4.443-1.518,6.6a5.4,5.4,0,0,1-4.744,2.16,5.437,5.437,0,0,1-4.717-2.112q-1.531-2.112-1.586-6.31V15.475q0-4.389,1.518-6.521A5.439,5.439,0,0,1,40.2,6.82a5.488,5.488,0,0,1,4.73,2.058q1.518,2.058,1.559,6.351Zm-2.529-3.459a9.268,9.268,0,0,0-.9-4.683A3.106,3.106,0,0,0,40.2,8.9a3.065,3.065,0,0,0-2.83,1.463,9.049,9.049,0,0,0-.916,4.5v4.047a9.417,9.417,0,0,0,.937,4.765,3.1,3.1,0,0,0,2.837,1.538,3.057,3.057,0,0,0,2.782-1.449,9.076,9.076,0,0,0,.95-4.566Zm5.551-4.129a4.039,4.039,0,0,1,1.142-2.953,4.289,4.289,0,0,1,5.879.007A4.179,4.179,0,0,1,57.663,11v.971a3.987,3.987,0,0,1-1.142,2.946,3.936,3.936,0,0,1-2.905,1.142,4.022,4.022,0,0,1-2.939-1.142,4.071,4.071,0,0,1-1.162-3.042ZM51.4,11.969A2.587,2.587,0,0,0,52,13.73a2.03,2.03,0,0,0,1.613.692,1.99,1.99,0,0,0,1.565-.671,2.672,2.672,0,0,0,.595-1.836v-1a2.652,2.652,0,0,0-.588-1.768,2.18,2.18,0,0,0-3.2,0,2.735,2.735,0,0,0-.588,1.823Zm7.807,10.15a4.016,4.016,0,0,1,1.142-2.946,4.318,4.318,0,0,1,5.872-.007,4.121,4.121,0,0,1,1.148,3.049v.971a4.016,4.016,0,0,1-1.142,2.946,3.928,3.928,0,0,1-2.919,1.155,4.022,4.022,0,0,1-2.939-1.142A4.071,4.071,0,0,1,59.208,23.1Zm1.887,1.061a2.607,2.607,0,0,0,.6,1.774,2.03,2.03,0,0,0,1.613.692,1.976,1.976,0,0,0,1.572-.678,2.718,2.718,0,0,0,.588-1.843V22.111a2.6,2.6,0,0,0-.595-1.768,2.186,2.186,0,0,0-3.172-.007,2.638,2.638,0,0,0-.608,1.829ZM54.19,25.5l-1.436-.9L62.476,9.035l1.436.9Z" transform="translate(-138 1149.5)" fill="#888"/></g><g transform="translate(1058 -7.5)"><line y2="968" transform="translate(-298 167.5)" fill="none" stroke="#e3e3e3" stroke-width="2"/><line y2="968" transform="translate(22 167.5)" fill="none" stroke="#e3e3e3" stroke-width="2"/><line y2="968" transform="translate(182 167.5)" fill="none" stroke="#e3e3e3" stroke-width="2"/><line y2="968" transform="translate(-138 167.5)" fill="none" stroke="#e3e3e3" stroke-width="2"/><line y2="968" transform="translate(-458 167.5)" fill="none" stroke="#e3e3e3" stroke-width="2"/><path d="M13.381,27H10.838V10.143l-5.1,1.873v-2.3L12.984,7h.4Zm19.893-8.49q0,4.443-1.518,6.6a5.4,5.4,0,0,1-4.744,2.16,5.437,5.437,0,0,1-4.717-2.112q-1.531-2.112-1.586-6.31V15.475q0-4.389,1.518-6.521A5.439,5.439,0,0,1,26.984,6.82a5.488,5.488,0,0,1,4.73,2.058q1.518,2.058,1.559,6.351Zm-2.529-3.459a9.268,9.268,0,0,0-.9-4.683A3.106,3.106,0,0,0,26.984,8.9a3.065,3.065,0,0,0-2.83,1.463,9.049,9.049,0,0,0-.916,4.5v4.047a9.417,9.417,0,0,0,.937,4.765,3.1,3.1,0,0,0,2.837,1.538,3.057,3.057,0,0,0,2.782-1.449,9.076,9.076,0,0,0,.95-4.566Zm5.947,15.914-1.436-.984a6.6,6.6,0,0,0,1.34-3.691V24.006H39.07v1.982a6.227,6.227,0,0,1-.677,2.762A6.466,6.466,0,0,1,36.691,30.965Zm17.8-12.455q0,4.443-1.518,6.6a5.4,5.4,0,0,1-4.744,2.16,5.437,5.437,0,0,1-4.717-2.112q-1.531-2.112-1.586-6.31V15.475q0-4.389,1.518-6.521A5.439,5.439,0,0,1,48.2,6.82a5.488,5.488,0,0,1,4.73,2.058q1.518,2.058,1.559,6.351Zm-2.529-3.459a9.268,9.268,0,0,0-.9-4.683A3.106,3.106,0,0,0,48.2,8.9a3.065,3.065,0,0,0-2.83,1.463,9.049,9.049,0,0,0-.916,4.5v4.047a9.417,9.417,0,0,0,.937,4.765,3.1,3.1,0,0,0,2.837,1.538,3.057,3.057,0,0,0,2.782-1.449,9.076,9.076,0,0,0,.95-4.566Zm5.551-4.129a4.039,4.039,0,0,1,1.142-2.953,4.289,4.289,0,0,1,5.879.007A4.179,4.179,0,0,1,65.662,11v.971a3.987,3.987,0,0,1-1.142,2.946,3.936,3.936,0,0,1-2.905,1.142,4.022,4.022,0,0,1-2.939-1.142,4.071,4.071,0,0,1-1.162-3.042ZM59.4,11.969A2.587,2.587,0,0,0,60,13.73a2.03,2.03,0,0,0,1.613.692,1.99,1.99,0,0,0,1.565-.671,2.672,2.672,0,0,0,.595-1.836v-1a2.652,2.652,0,0,0-.588-1.768,2.18,2.18,0,0,0-3.2,0,2.735,2.735,0,0,0-.588,1.823Zm7.807,10.15a4.016,4.016,0,0,1,1.142-2.946,4.318,4.318,0,0,1,5.872-.007,4.121,4.121,0,0,1,1.148,3.049v.971a4.016,4.016,0,0,1-1.142,2.946,3.928,3.928,0,0,1-2.919,1.155,4.022,4.022,0,0,1-2.939-1.142A4.071,4.071,0,0,1,67.207,23.1Zm1.887,1.061a2.607,2.607,0,0,0,.6,1.774,2.03,2.03,0,0,0,1.613.692,1.976,1.976,0,0,0,1.572-.678,2.718,2.718,0,0,0,.588-1.843V22.111a2.6,2.6,0,0,0-.595-1.768,2.186,2.186,0,0,0-3.172-.007,2.638,2.638,0,0,0-.608,1.829Zm-6.9,2.316-1.436-.9L70.475,9.035l1.436.9Z" transform="translate(-18 1151.5)" fill="#888"/><path d="M13.381,27H10.838V10.143l-5.1,1.873v-2.3L12.984,7h.4Zm8.572-9.98,1.012-9.926h10.2V9.432H25.111l-.6,5.428A6.424,6.424,0,0,1,27.832,14a5.492,5.492,0,0,1,4.32,1.8,7.046,7.046,0,0,1,1.6,4.86A6.8,6.8,0,0,1,32.091,25.5a6.054,6.054,0,0,1-4.642,1.771,6.292,6.292,0,0,1-4.307-1.463,5.839,5.839,0,0,1-1.9-4.047h2.393a4.017,4.017,0,0,0,1.217,2.577,3.783,3.783,0,0,0,2.6.868,3.413,3.413,0,0,0,2.769-1.2,5.03,5.03,0,0,0,1-3.322,4.616,4.616,0,0,0-1.087-3.206,3.7,3.7,0,0,0-2.892-1.21,4.17,4.17,0,0,0-2.6.725l-.67.547ZM36.691,30.965l-1.436-.984a6.6,6.6,0,0,0,1.34-3.691V24.006H39.07v1.982a6.227,6.227,0,0,1-.677,2.762A6.466,6.466,0,0,1,36.691,30.965Zm17.8-12.455q0,4.443-1.518,6.6a5.4,5.4,0,0,1-4.744,2.16,5.437,5.437,0,0,1-4.717-2.112q-1.531-2.112-1.586-6.31V15.475q0-4.389,1.518-6.521A5.439,5.439,0,0,1,48.2,6.82a5.488,5.488,0,0,1,4.73,2.058q1.518,2.058,1.559,6.351Zm-2.529-3.459a9.268,9.268,0,0,0-.9-4.683A3.106,3.106,0,0,0,48.2,8.9a3.065,3.065,0,0,0-2.83,1.463,9.049,9.049,0,0,0-.916,4.5v4.047a9.417,9.417,0,0,0,.937,4.765,3.1,3.1,0,0,0,2.837,1.538,3.057,3.057,0,0,0,2.782-1.449,9.076,9.076,0,0,0,.95-4.566Zm5.551-4.129a4.039,4.039,0,0,1,1.142-2.953,4.289,4.289,0,0,1,5.879.007A4.179,4.179,0,0,1,65.662,11v.971a3.987,3.987,0,0,1-1.142,2.946,3.936,3.936,0,0,1-2.905,1.142,4.022,4.022,0,0,1-2.939-1.142,4.071,4.071,0,0,1-1.162-3.042ZM59.4,11.969A2.587,2.587,0,0,0,60,13.73a2.03,2.03,0,0,0,1.613.692,1.99,1.99,0,0,0,1.565-.671,2.672,2.672,0,0,0,.595-1.836v-1a2.652,2.652,0,0,0-.588-1.768,2.18,2.18,0,0,0-3.2,0,2.735,2.735,0,0,0-.588,1.823Zm7.807,10.15a4.016,4.016,0,0,1,1.142-2.946,4.318,4.318,0,0,1,5.872-.007,4.121,4.121,0,0,1,1.148,3.049v.971a4.016,4.016,0,0,1-1.142,2.946,3.928,3.928,0,0,1-2.919,1.155,4.022,4.022,0,0,1-2.939-1.142A4.071,4.071,0,0,1,67.207,23.1Zm1.887,1.061a2.607,2.607,0,0,0,.6,1.774,2.03,2.03,0,0,0,1.613.692,1.976,1.976,0,0,0,1.572-.678,2.718,2.718,0,0,0,.588-1.843V22.111a2.6,2.6,0,0,0-.595-1.768,2.186,2.186,0,0,0-3.172-.007,2.638,2.638,0,0,0-.608,1.829Zm-6.9,2.316-1.436-.9L70.475,9.035l1.436.9Z" transform="translate(110 1151.5)" fill="#888"/><path d="M10.092,17.02,11.1,7.094H21.3V9.432H13.25l-.6,5.428A6.424,6.424,0,0,1,15.971,14a5.492,5.492,0,0,1,4.32,1.8,7.046,7.046,0,0,1,1.6,4.86A6.8,6.8,0,0,1,20.229,25.5a6.054,6.054,0,0,1-4.642,1.771,6.292,6.292,0,0,1-4.307-1.463,5.839,5.839,0,0,1-1.9-4.047h2.393a4.017,4.017,0,0,0,1.217,2.577,3.783,3.783,0,0,0,2.6.868,3.413,3.413,0,0,0,2.769-1.2,5.03,5.03,0,0,0,1-3.322,4.616,4.616,0,0,0-1.087-3.206,3.7,3.7,0,0,0-2.892-1.21,4.17,4.17,0,0,0-2.6.725l-.67.547ZM24.83,30.965l-1.436-.984a6.6,6.6,0,0,0,1.34-3.691V24.006h2.475v1.982a6.227,6.227,0,0,1-.677,2.762A6.466,6.466,0,0,1,24.83,30.965Zm17.8-12.455q0,4.443-1.518,6.6a5.4,5.4,0,0,1-4.744,2.16,5.437,5.437,0,0,1-4.717-2.112q-1.531-2.112-1.586-6.31V15.475q0-4.389,1.518-6.521A5.439,5.439,0,0,1,36.342,6.82a5.488,5.488,0,0,1,4.73,2.058q1.518,2.058,1.559,6.351ZM40.1,15.051a9.268,9.268,0,0,0-.9-4.683A3.106,3.106,0,0,0,36.342,8.9a3.065,3.065,0,0,0-2.83,1.463,9.049,9.049,0,0,0-.916,4.5v4.047a9.417,9.417,0,0,0,.937,4.765,3.1,3.1,0,0,0,2.837,1.538,3.057,3.057,0,0,0,2.782-1.449,9.076,9.076,0,0,0,.95-4.566Zm5.551-4.129a4.039,4.039,0,0,1,1.142-2.953,4.289,4.289,0,0,1,5.879.007A4.179,4.179,0,0,1,53.8,11v.971a3.987,3.987,0,0,1-1.142,2.946,3.936,3.936,0,0,1-2.905,1.142,4.022,4.022,0,0,1-2.939-1.142,4.071,4.071,0,0,1-1.162-3.042Zm1.887,1.047a2.587,2.587,0,0,0,.6,1.761,2.03,2.03,0,0,0,1.613.692,1.99,1.99,0,0,0,1.565-.671,2.672,2.672,0,0,0,.595-1.836v-1a2.652,2.652,0,0,0-.588-1.768,2.18,2.18,0,0,0-3.2,0,2.735,2.735,0,0,0-.588,1.823Zm7.807,10.15a4.016,4.016,0,0,1,1.142-2.946,4.318,4.318,0,0,1,5.872-.007,4.121,4.121,0,0,1,1.148,3.049v.971a4.016,4.016,0,0,1-1.142,2.946,3.928,3.928,0,0,1-2.919,1.155,4.022,4.022,0,0,1-2.939-1.142A4.071,4.071,0,0,1,55.346,23.1Zm1.887,1.061a2.607,2.607,0,0,0,.6,1.774,2.03,2.03,0,0,0,1.613.692,1.976,1.976,0,0,0,1.572-.678,2.718,2.718,0,0,0,.588-1.843V22.111a2.6,2.6,0,0,0-.595-1.768,2.186,2.186,0,0,0-3.172-.007,2.638,2.638,0,0,0-.608,1.829Zm-6.9,2.316-1.436-.9L58.613,9.035l1.436.9Z" transform="translate(-178 1156.5)" fill="#888"/><path d="M17.412,18.51q0,4.443-1.518,6.6a5.4,5.4,0,0,1-4.744,2.16,5.437,5.437,0,0,1-4.717-2.112Q4.9,23.049,4.848,18.852V15.475q0-4.389,1.518-6.521A5.439,5.439,0,0,1,11.123,6.82a5.488,5.488,0,0,1,4.73,2.058q1.518,2.058,1.559,6.351Zm-2.529-3.459a9.268,9.268,0,0,0-.9-4.683A3.106,3.106,0,0,0,11.123,8.9a3.065,3.065,0,0,0-2.83,1.463,9.049,9.049,0,0,0-.916,4.5v4.047a9.417,9.417,0,0,0,.937,4.765,3.1,3.1,0,0,0,2.837,1.538,3.057,3.057,0,0,0,2.782-1.449,9.076,9.076,0,0,0,.95-4.566ZM20.83,30.965l-1.436-.984a6.6,6.6,0,0,0,1.34-3.691V24.006h2.475v1.982a6.227,6.227,0,0,1-.677,2.762A6.466,6.466,0,0,1,20.83,30.965Zm17.8-12.455q0,4.443-1.518,6.6a5.4,5.4,0,0,1-4.744,2.16,5.437,5.437,0,0,1-4.717-2.112q-1.531-2.112-1.586-6.31V15.475q0-4.389,1.518-6.521A5.439,5.439,0,0,1,32.342,6.82a5.488,5.488,0,0,1,4.73,2.058q1.518,2.058,1.559,6.351ZM36.1,15.051a9.268,9.268,0,0,0-.9-4.683A3.106,3.106,0,0,0,32.342,8.9a3.065,3.065,0,0,0-2.83,1.463,9.049,9.049,0,0,0-.916,4.5v4.047a9.417,9.417,0,0,0,.937,4.765,3.1,3.1,0,0,0,2.837,1.538,3.057,3.057,0,0,0,2.782-1.449,9.076,9.076,0,0,0,.95-4.566Zm5.551-4.129a4.039,4.039,0,0,1,1.142-2.953,4.289,4.289,0,0,1,5.879.007A4.179,4.179,0,0,1,49.8,11v.971a3.987,3.987,0,0,1-1.142,2.946,3.936,3.936,0,0,1-2.905,1.142,4.022,4.022,0,0,1-2.939-1.142,4.071,4.071,0,0,1-1.162-3.042Zm1.887,1.047a2.587,2.587,0,0,0,.6,1.761,2.03,2.03,0,0,0,1.613.692,1.99,1.99,0,0,0,1.565-.671,2.672,2.672,0,0,0,.595-1.836v-1a2.652,2.652,0,0,0-.588-1.768,2.18,2.18,0,0,0-3.2,0,2.735,2.735,0,0,0-.588,1.823Zm7.807,10.15a4.016,4.016,0,0,1,1.142-2.946,4.318,4.318,0,0,1,5.872-.007,4.121,4.121,0,0,1,1.148,3.049v.971a4.016,4.016,0,0,1-1.142,2.946,3.928,3.928,0,0,1-2.919,1.155,4.022,4.022,0,0,1-2.939-1.142A4.071,4.071,0,0,1,51.346,23.1Zm1.887,1.061a2.607,2.607,0,0,0,.6,1.774,2.03,2.03,0,0,0,1.613.692,1.976,1.976,0,0,0,1.572-.678,2.718,2.718,0,0,0,.588-1.843V22.111a2.6,2.6,0,0,0-.595-1.768,2.186,2.186,0,0,0-3.172-.007,2.638,2.638,0,0,0-.608,1.829Zm-6.9,2.316-1.436-.9L54.613,9.035l1.436.9Z" transform="translate(-330 1156.5)" fill="#888"/></g><g transform="translate(-3878 -857)"><g transform="translate(0 -832)"><path d="M6,0H29a0,0,0,0,1,0,0V48a0,0,0,0,1,0,0H6a6,6,0,0,1-6-6V6A6,6,0,0,1,6,0Z" transform="translate(4609 2465)" fill="#c02"/><path d="M6,0H40a0,0,0,0,1,0,0V48a0,0,0,0,1,0,0H6a6,6,0,0,1-6-6V6A6,6,0,0,1,6,0Z" transform="translate(4598 2553)" fill="#c02"/><path d="M6,0H144a0,0,0,0,1,0,0V48a0,0,0,0,1,0,0H6a6,6,0,0,1-6-6V6A6,6,0,0,1,6,0Z" transform="translate(4494 2641)" fill="#c02"/><path d="M6,0H336a0,0,0,0,1,0,0V48a0,0,0,0,1,0,0H6a6,6,0,0,1-6-6V6A6,6,0,0,1,6,0Z" transform="translate(4302 2729)" fill="#c02"/><path d="M9.313,21.859h-8.2V18.8h8.2Zm17.719-1.437q0,4.906-1.836,7.4a6.484,6.484,0,0,1-5.586,2.492,6.57,6.57,0,0,1-5.555-2.43q-1.867-2.43-1.914-7.2V16.75q0-4.906,1.836-7.359a6.544,6.544,0,0,1,5.6-2.453,6.581,6.581,0,0,1,5.57,2.391q1.836,2.391,1.883,7.156Zm-3.8-4.25a9.626,9.626,0,0,0-.875-4.7,2.986,2.986,0,0,0-2.781-1.492A2.984,2.984,0,0,0,16.844,11.4a8.9,8.9,0,0,0-.922,4.414v5.156a9.875,9.875,0,0,0,.891,4.75,2.992,2.992,0,0,0,2.8,1.563,2.939,2.939,0,0,0,2.7-1.445,9.291,9.291,0,0,0,.922-4.523Zm7.938,18.953-2.047-1.219a11.041,11.041,0,0,0,1.242-2.477,7.39,7.39,0,0,0,.352-2.148V26.328h3.422l-.016,2.734a7.621,7.621,0,0,1-.836,3.32A8.248,8.248,0,0,1,31.172,35.125ZM48.188,20.484a6.205,6.205,0,0,1-9.234-.086,8.252,8.252,0,0,1-1.781-5.523,9.055,9.055,0,0,1,.906-4.078,6.758,6.758,0,0,1,2.578-2.844,7.315,7.315,0,0,1,3.875-1.016A6.572,6.572,0,0,1,49.984,9.5,10.793,10.793,0,0,1,52,16.359v1.063q0,6.156-2.781,9.391t-8.3,3.281h-.453V26.953h.547a7.775,7.775,0,0,0,5.156-1.617A6.741,6.741,0,0,0,48.188,20.484Zm-3.656-.953a3.832,3.832,0,0,0,2.141-.656,4.324,4.324,0,0,0,1.547-1.812V15.578a7.127,7.127,0,0,0-1.031-4.047A3.107,3.107,0,0,0,44.516,10,3.07,3.07,0,0,0,41.9,11.352a5.681,5.681,0,0,0-.977,3.414,5.611,5.611,0,0,0,.984,3.453A3.118,3.118,0,0,0,44.531,19.531Zm10.922-7.906a4.566,4.566,0,0,1,1.328-3.383,5.289,5.289,0,0,1,6.992,0,4.68,4.68,0,0,1,1.32,3.461v1.125a4.534,4.534,0,0,1-1.32,3.359A4.716,4.716,0,0,1,60.3,17.5a4.865,4.865,0,0,1-3.477-1.289,4.55,4.55,0,0,1-1.367-3.477Zm2.656,1.2a2.506,2.506,0,0,0,.6,1.747,2.035,2.035,0,0,0,1.586.666,1.993,1.993,0,0,0,1.563-.666,2.62,2.62,0,0,0,.594-1.809V11.616a2.535,2.535,0,0,0-.6-1.755,2.024,2.024,0,0,0-1.586-.674,1.966,1.966,0,0,0-1.57.681,2.655,2.655,0,0,0-.586,1.794Zm8.281,11.6a4.472,4.472,0,0,1,1.359-3.391,5.3,5.3,0,0,1,6.945,0,4.623,4.623,0,0,1,1.352,3.5v1.109a4.57,4.57,0,0,1-1.3,3.352,4.688,4.688,0,0,1-3.492,1.32,4.827,4.827,0,0,1-3.523-1.3,4.6,4.6,0,0,1-1.336-3.445Zm2.656,1.2a2.492,2.492,0,0,0,.617,1.742,2.045,2.045,0,0,0,1.586.68,1.983,1.983,0,0,0,1.57-.648,2.666,2.666,0,0,0,.57-1.82V24.406a2.469,2.469,0,0,0-.609-1.75,2.2,2.2,0,0,0-3.133,0,2.581,2.581,0,0,0-.6,1.813ZM61.078,28.3l-1.953-1.125L70.234,9.391l1.953,1.125Z" transform="translate(4518 2470)" fill="#c02"/><path d="M9.313,21.859h-8.2V18.8h8.2ZM22.484,30H18.7V11.723l-5.578,1.9V10.438L22,7.172h.484Zm8.688,5.125-2.047-1.219a11.041,11.041,0,0,0,1.242-2.477,7.39,7.39,0,0,0,.352-2.148V26.328h3.422l-.016,2.734a7.621,7.621,0,0,1-.836,3.32A8.248,8.248,0,0,1,31.172,35.125ZM50.266,21.891h2.828v3.047H50.266V30h-3.8V24.938H36.641l-.109-2.312L46.344,7.25h3.922Zm-9.75,0h5.953v-9.5l-.281.5ZM55.453,11.625a4.566,4.566,0,0,1,1.328-3.383,5.289,5.289,0,0,1,6.992,0,4.68,4.68,0,0,1,1.32,3.461v1.125a4.534,4.534,0,0,1-1.32,3.359A4.716,4.716,0,0,1,60.3,17.5a4.865,4.865,0,0,1-3.477-1.289,4.55,4.55,0,0,1-1.367-3.477Zm2.656,1.2a2.506,2.506,0,0,0,.6,1.747,2.035,2.035,0,0,0,1.586.666,1.993,1.993,0,0,0,1.563-.666,2.62,2.62,0,0,0,.594-1.809V11.616a2.535,2.535,0,0,0-.6-1.755,2.024,2.024,0,0,0-1.586-.674,1.966,1.966,0,0,0-1.57.681,2.655,2.655,0,0,0-.586,1.794Zm8.281,11.6a4.472,4.472,0,0,1,1.359-3.391,5.3,5.3,0,0,1,6.945,0,4.623,4.623,0,0,1,1.352,3.5v1.109a4.57,4.57,0,0,1-1.3,3.352,4.688,4.688,0,0,1-3.492,1.32,4.827,4.827,0,0,1-3.523-1.3,4.6,4.6,0,0,1-1.336-3.445Zm2.656,1.2a2.492,2.492,0,0,0,.617,1.742,2.045,2.045,0,0,0,1.586.68,1.983,1.983,0,0,0,1.57-.648,2.666,2.666,0,0,0,.57-1.82V24.406a2.469,2.469,0,0,0-.609-1.75,2.2,2.2,0,0,0-3.133,0,2.581,2.581,0,0,0-.6,1.813ZM61.078,28.3l-1.953-1.125L70.234,9.391l1.953,1.125Z" transform="translate(4508 2558)" fill="#c02"/><path d="M9.313,21.859h-8.2V18.8h8.2Zm15.734.031h2.828v3.047H25.047V30h-3.8V24.938H11.422l-.109-2.312L21.125,7.25h3.922Zm-9.75,0H21.25v-9.5l-.281.5ZM31.172,35.125l-2.047-1.219a11.041,11.041,0,0,0,1.242-2.477,7.39,7.39,0,0,0,.352-2.148V26.328h3.422l-.016,2.734a7.621,7.621,0,0,1-.836,3.32A8.248,8.248,0,0,1,31.172,35.125ZM52.563,9.359,43.469,30H39.484l9.078-19.7H36.8V7.25H52.563Zm2.891,2.266a4.566,4.566,0,0,1,1.328-3.383,5.289,5.289,0,0,1,6.992,0,4.68,4.68,0,0,1,1.32,3.461v1.125a4.534,4.534,0,0,1-1.32,3.359A4.716,4.716,0,0,1,60.3,17.5a4.865,4.865,0,0,1-3.477-1.289,4.55,4.55,0,0,1-1.367-3.477Zm2.656,1.2a2.506,2.506,0,0,0,.6,1.747,2.035,2.035,0,0,0,1.586.666,1.993,1.993,0,0,0,1.563-.666,2.62,2.62,0,0,0,.594-1.809V11.616a2.535,2.535,0,0,0-.6-1.755,2.024,2.024,0,0,0-1.586-.674,1.966,1.966,0,0,0-1.57.681,2.655,2.655,0,0,0-.586,1.794Zm8.281,11.6a4.472,4.472,0,0,1,1.359-3.391,5.3,5.3,0,0,1,6.945,0,4.623,4.623,0,0,1,1.352,3.5v1.109a4.57,4.57,0,0,1-1.3,3.352,4.688,4.688,0,0,1-3.492,1.32,4.827,4.827,0,0,1-3.523-1.3,4.6,4.6,0,0,1-1.336-3.445Zm2.656,1.2a2.492,2.492,0,0,0,.617,1.742,2.045,2.045,0,0,0,1.586.68,1.983,1.983,0,0,0,1.57-.648,2.666,2.666,0,0,0,.57-1.82V24.406a2.469,2.469,0,0,0-.609-1.75,2.2,2.2,0,0,0-3.133,0,2.581,2.581,0,0,0-.6,1.813ZM61.078,28.3l-1.953-1.125L70.234,9.391l1.953,1.125Z" transform="translate(4502 2646)" fill="#fff"/><path d="M9.313,21.859h-8.2V18.8h8.2ZM22.484,30H18.7V11.723l-5.578,1.9V10.438L22,7.172h.484Zm22.734-9.578q0,4.906-1.836,7.4A6.484,6.484,0,0,1,37.8,30.313a6.57,6.57,0,0,1-5.555-2.43q-1.867-2.43-1.914-7.2V16.75q0-4.906,1.836-7.359a6.544,6.544,0,0,1,5.6-2.453,6.581,6.581,0,0,1,5.57,2.391q1.836,2.391,1.883,7.156Zm-3.8-4.25a9.626,9.626,0,0,0-.875-4.7,2.986,2.986,0,0,0-2.781-1.492A2.984,2.984,0,0,0,35.031,11.4a8.9,8.9,0,0,0-.922,4.414v5.156A9.875,9.875,0,0,0,35,25.719a2.992,2.992,0,0,0,2.8,1.563,2.939,2.939,0,0,0,2.7-1.445,9.291,9.291,0,0,0,.922-4.523Zm7.938,18.953-2.047-1.219a11.041,11.041,0,0,0,1.242-2.477,7.39,7.39,0,0,0,.352-2.148V26.328h3.422l-.016,2.734a7.621,7.621,0,0,1-.836,3.32A8.248,8.248,0,0,1,49.359,35.125Zm7.266-16.406L57.859,7.25H70.078v3.281H61.016l-.625,5.438a7.024,7.024,0,0,1,3.563-.906,6.338,6.338,0,0,1,5.055,2.078,8.235,8.235,0,0,1,1.8,5.594,7.58,7.58,0,0,1-2,5.523,7.3,7.3,0,0,1-5.484,2.055,7.645,7.645,0,0,1-5.18-1.773,6.411,6.411,0,0,1-2.227-4.68h3.672A4.01,4.01,0,0,0,60.781,26.4a3.612,3.612,0,0,0,2.531.883,3.264,3.264,0,0,0,2.727-1.25,5.4,5.4,0,0,0,.977-3.406,4.767,4.767,0,0,0-1.078-3.289,3.771,3.771,0,0,0-2.969-1.211,4.147,4.147,0,0,0-3.312,1.344Zm17.016-7.094a4.566,4.566,0,0,1,1.328-3.383,5.289,5.289,0,0,1,6.992,0,4.68,4.68,0,0,1,1.32,3.461v1.125a4.534,4.534,0,0,1-1.32,3.359A4.716,4.716,0,0,1,78.484,17.5a4.865,4.865,0,0,1-3.477-1.289,4.55,4.55,0,0,1-1.367-3.477Zm2.656,1.2a2.506,2.506,0,0,0,.6,1.747,2.035,2.035,0,0,0,1.586.666,1.993,1.993,0,0,0,1.563-.666,2.62,2.62,0,0,0,.594-1.809V11.616a2.535,2.535,0,0,0-.6-1.755,2.024,2.024,0,0,0-1.586-.674,1.966,1.966,0,0,0-1.57.681,2.655,2.655,0,0,0-.586,1.794Zm8.281,11.6a4.472,4.472,0,0,1,1.359-3.391,5.3,5.3,0,0,1,6.945,0,4.623,4.623,0,0,1,1.352,3.5v1.109a4.57,4.57,0,0,1-1.3,3.352,4.688,4.688,0,0,1-3.492,1.32,4.827,4.827,0,0,1-3.523-1.3,4.6,4.6,0,0,1-1.336-3.445Zm2.656,1.2a2.492,2.492,0,0,0,.617,1.742,2.045,2.045,0,0,0,1.586.68,1.983,1.983,0,0,0,1.57-.648,2.666,2.666,0,0,0,.57-1.82V24.406a2.469,2.469,0,0,0-.609-1.75,2.2,2.2,0,0,0-3.133,0,2.581,2.581,0,0,0-.6,1.813ZM79.266,28.3l-1.953-1.125L88.422,9.391l1.953,1.125Z" transform="translate(4310 2734)" fill="#fff"/><path d="M0,0H466a6,6,0,0,1,6,6V42a6,6,0,0,1-6,6H0a0,0,0,0,1,0,0V0A0,0,0,0,1,0,0Z" transform="translate(4638 1849)" fill="#c02"/><path d="M11.984,30H8.2V11.723l-5.578,1.9V10.438L11.5,7.172h.484Zm20.75-8.109h2.828v3.047H32.734V30h-3.8V24.938H19.109L19,22.625,28.813,7.25h3.922Zm-9.75,0h5.953v-9.5l-.281.5ZM38.859,35.125l-2.047-1.219a11.041,11.041,0,0,0,1.242-2.477,7.39,7.39,0,0,0,.352-2.148V26.328h3.422l-.016,2.734a7.621,7.621,0,0,1-.836,3.32A8.248,8.248,0,0,1,38.859,35.125ZM55.875,20.484a6.205,6.205,0,0,1-9.234-.086,8.252,8.252,0,0,1-1.781-5.523,9.055,9.055,0,0,1,.906-4.078,6.758,6.758,0,0,1,2.578-2.844,7.315,7.315,0,0,1,3.875-1.016A6.572,6.572,0,0,1,57.672,9.5a10.793,10.793,0,0,1,2.016,6.859v1.063q0,6.156-2.781,9.391t-8.3,3.281h-.453V26.953H48.7a7.775,7.775,0,0,0,5.156-1.617A6.741,6.741,0,0,0,55.875,20.484Zm-3.656-.953a3.832,3.832,0,0,0,2.141-.656,4.324,4.324,0,0,0,1.547-1.812V15.578a7.127,7.127,0,0,0-1.031-4.047A3.107,3.107,0,0,0,52.2,10a3.07,3.07,0,0,0-2.617,1.352,5.681,5.681,0,0,0-.977,3.414,5.611,5.611,0,0,0,.984,3.453A3.118,3.118,0,0,0,52.219,19.531Zm10.922-7.906a4.566,4.566,0,0,1,1.328-3.383,5.289,5.289,0,0,1,6.992,0,4.68,4.68,0,0,1,1.32,3.461v1.125a4.534,4.534,0,0,1-1.32,3.359A4.716,4.716,0,0,1,67.984,17.5a4.865,4.865,0,0,1-3.477-1.289,4.55,4.55,0,0,1-1.367-3.477Zm2.656,1.2a2.506,2.506,0,0,0,.6,1.747,2.035,2.035,0,0,0,1.586.666,1.993,1.993,0,0,0,1.563-.666,2.62,2.62,0,0,0,.594-1.809V11.616a2.535,2.535,0,0,0-.6-1.755,2.024,2.024,0,0,0-1.586-.674,1.966,1.966,0,0,0-1.57.681,2.655,2.655,0,0,0-.586,1.794Zm8.281,11.6a4.472,4.472,0,0,1,1.359-3.391,5.3,5.3,0,0,1,6.945,0,4.623,4.623,0,0,1,1.352,3.5v1.109a4.57,4.57,0,0,1-1.3,3.352,4.688,4.688,0,0,1-3.492,1.32,4.827,4.827,0,0,1-3.523-1.3,4.6,4.6,0,0,1-1.336-3.445Zm2.656,1.2a2.492,2.492,0,0,0,.617,1.742,2.045,2.045,0,0,0,1.586.68,1.983,1.983,0,0,0,1.57-.648,2.666,2.666,0,0,0,.57-1.82V24.406a2.469,2.469,0,0,0-.609-1.75,2.2,2.2,0,0,0-3.133,0,2.581,2.581,0,0,0-.6,1.813ZM68.766,28.3l-1.953-1.125L77.922,9.391l1.953,1.125Z" transform="translate(5011 1854)" fill="#fff"/><path d="M0,0H199a6,6,0,0,1,6,6V42a6,6,0,0,1-6,6H0a0,0,0,0,1,0,0V0A0,0,0,0,1,0,0Z" transform="translate(4638 1937)" fill="#c02"/><path d="M13.516,7.141v3.141h-.469a7.537,7.537,0,0,0-5.094,1.75,7.323,7.323,0,0,0-2.266,4.828,6.165,6.165,0,0,1,4.672-1.922,5.823,5.823,0,0,1,4.758,2.125,8.369,8.369,0,0,1,1.742,5.484,7.824,7.824,0,0,1-2.039,5.617,7.039,7.039,0,0,1-5.352,2.148A6.875,6.875,0,0,1,3.945,27.8,9.9,9.9,0,0,1,1.828,21.2v-1.3q0-5.984,2.914-9.375t8.383-3.391ZM9.438,18a4,4,0,0,0-2.289.7,4.11,4.11,0,0,0-1.523,1.875v1.156a6.811,6.811,0,0,0,1.063,4.023,3.24,3.24,0,0,0,2.75,1.492,3.2,3.2,0,0,0,2.672-1.266,5.27,5.27,0,0,0,.984-3.328,5.346,5.346,0,0,0-1-3.359A3.188,3.188,0,0,0,9.438,18ZM20.672,35.125l-2.047-1.219a11.041,11.041,0,0,0,1.242-2.477,7.39,7.39,0,0,0,.352-2.148V26.328h3.422l-.016,2.734a7.621,7.621,0,0,1-.836,3.32A8.248,8.248,0,0,1,20.672,35.125ZM41.25,13.25a5.289,5.289,0,0,1-.859,2.977,5.961,5.961,0,0,1-2.344,2.055,6.492,6.492,0,0,1,2.742,2.266,5.715,5.715,0,0,1,.961,3.25,5.969,5.969,0,0,1-2.031,4.758,7.973,7.973,0,0,1-5.406,1.758,8,8,0,0,1-5.43-1.766,5.964,5.964,0,0,1-2.039-4.75,5.782,5.782,0,0,1,.969-3.281,6.223,6.223,0,0,1,2.719-2.234,5.927,5.927,0,0,1-2.32-2.055,5.324,5.324,0,0,1-.852-2.977,5.918,5.918,0,0,1,1.875-4.609,7.244,7.244,0,0,1,5.063-1.7,7.267,7.267,0,0,1,5.078,1.7A5.918,5.918,0,0,1,41.25,13.25Zm-3.3,10.359a3.75,3.75,0,0,0-1.008-2.727,3.542,3.542,0,0,0-2.664-1.039,3.5,3.5,0,0,0-2.648,1.031,3.778,3.778,0,0,0-.992,2.734,3.66,3.66,0,0,0,.977,2.672,3.594,3.594,0,0,0,2.7,1,3.605,3.605,0,0,0,2.68-.969A3.671,3.671,0,0,0,37.953,23.609Zm-.484-10.219a3.53,3.53,0,0,0-.859-2.445A3.3,3.3,0,0,0,32,10.9a3.532,3.532,0,0,0-.844,2.492,3.518,3.518,0,0,0,.852,2.484,3.342,3.342,0,0,0,4.609,0A3.518,3.518,0,0,0,37.469,13.391Zm7.484-1.766a4.566,4.566,0,0,1,1.328-3.383,5.289,5.289,0,0,1,6.992,0,4.68,4.68,0,0,1,1.32,3.461v1.125a4.534,4.534,0,0,1-1.32,3.359A4.716,4.716,0,0,1,49.8,17.5a4.865,4.865,0,0,1-3.477-1.289,4.55,4.55,0,0,1-1.367-3.477Zm2.656,1.2a2.506,2.506,0,0,0,.6,1.747,2.035,2.035,0,0,0,1.586.666,1.993,1.993,0,0,0,1.563-.666,2.62,2.62,0,0,0,.594-1.809V11.616a2.535,2.535,0,0,0-.6-1.755,2.024,2.024,0,0,0-1.586-.674,1.966,1.966,0,0,0-1.57.681,2.655,2.655,0,0,0-.586,1.794Zm8.281,11.6a4.472,4.472,0,0,1,1.359-3.391,5.3,5.3,0,0,1,6.945,0,4.623,4.623,0,0,1,1.352,3.5v1.109a4.57,4.57,0,0,1-1.3,3.352,4.688,4.688,0,0,1-3.492,1.32,4.827,4.827,0,0,1-3.523-1.3,4.6,4.6,0,0,1-1.336-3.445Zm2.656,1.2a2.492,2.492,0,0,0,.617,1.742,2.045,2.045,0,0,0,1.586.68,1.983,1.983,0,0,0,1.57-.648,2.666,2.666,0,0,0,.57-1.82V24.406a2.469,2.469,0,0,0-.609-1.75,2.2,2.2,0,0,0-3.133,0,2.581,2.581,0,0,0-.6,1.813ZM50.578,28.3l-1.953-1.125L59.734,9.391l1.953,1.125Z" transform="translate(4762 1942)" fill="#fff"/><path d="M0,0H138a6,6,0,0,1,6,6V42a6,6,0,0,1-6,6H0a0,0,0,0,1,0,0V0A0,0,0,0,1,0,0Z" transform="translate(4638 2025)" fill="#c02"/><path d="M0,0H114a6,6,0,0,1,6,6V42a6,6,0,0,1-6,6H0a0,0,0,0,1,0,0V0A0,0,0,0,1,0,0Z" transform="translate(4638 2113)" fill="#c02"/><path d="M0,0H106a6,6,0,0,1,6,6V42a6,6,0,0,1-6,6H0a0,0,0,0,1,0,0V0A0,0,0,0,1,0,0Z" transform="translate(4638 2201)" fill="#c02"/><path d="M0,0H106a6,6,0,0,1,6,6V42a6,6,0,0,1-6,6H0a0,0,0,0,1,0,0V0A0,0,0,0,1,0,0Z" transform="translate(4638 2289)" fill="#c02"/><path d="M14.547,21.891h2.828v3.047H14.547V30h-3.8V24.938H.922L.813,22.625,10.625,7.25h3.922Zm-9.75,0H10.75v-9.5l-.281.5ZM20.672,35.125l-2.047-1.219a11.041,11.041,0,0,0,1.242-2.477,7.39,7.39,0,0,0,.352-2.148V26.328h3.422l-.016,2.734a7.621,7.621,0,0,1-.836,3.32A8.248,8.248,0,0,1,20.672,35.125Zm7.266-16.406L29.172,7.25H41.391v3.281H32.328L31.7,15.969a7.024,7.024,0,0,1,3.563-.906,6.338,6.338,0,0,1,5.055,2.078,8.235,8.235,0,0,1,1.8,5.594,7.58,7.58,0,0,1-2,5.523,7.3,7.3,0,0,1-5.484,2.055,7.645,7.645,0,0,1-5.18-1.773,6.411,6.411,0,0,1-2.227-4.68h3.672A4.01,4.01,0,0,0,32.094,26.4a3.612,3.612,0,0,0,2.531.883,3.264,3.264,0,0,0,2.727-1.25,5.4,5.4,0,0,0,.977-3.406,4.767,4.767,0,0,0-1.078-3.289,3.771,3.771,0,0,0-2.969-1.211,4.147,4.147,0,0,0-3.312,1.344Zm17.016-7.094a4.566,4.566,0,0,1,1.328-3.383,5.289,5.289,0,0,1,6.992,0,4.68,4.68,0,0,1,1.32,3.461v1.125a4.534,4.534,0,0,1-1.32,3.359A4.716,4.716,0,0,1,49.8,17.5a4.865,4.865,0,0,1-3.477-1.289,4.55,4.55,0,0,1-1.367-3.477Zm2.656,1.2a2.506,2.506,0,0,0,.6,1.747,2.035,2.035,0,0,0,1.586.666,1.993,1.993,0,0,0,1.563-.666,2.62,2.62,0,0,0,.594-1.809V11.616a2.535,2.535,0,0,0-.6-1.755,2.024,2.024,0,0,0-1.586-.674,1.966,1.966,0,0,0-1.57.681,2.655,2.655,0,0,0-.586,1.794Zm8.281,11.6a4.472,4.472,0,0,1,1.359-3.391,5.3,5.3,0,0,1,6.945,0,4.623,4.623,0,0,1,1.352,3.5v1.109a4.57,4.57,0,0,1-1.3,3.352,4.688,4.688,0,0,1-3.492,1.32,4.827,4.827,0,0,1-3.523-1.3,4.6,4.6,0,0,1-1.336-3.445Zm2.656,1.2a2.492,2.492,0,0,0,.617,1.742,2.045,2.045,0,0,0,1.586.68,1.983,1.983,0,0,0,1.57-.648,2.666,2.666,0,0,0,.57-1.82V24.406a2.469,2.469,0,0,0-.609-1.75,2.2,2.2,0,0,0-3.133,0,2.581,2.581,0,0,0-.6,1.813ZM50.578,28.3l-1.953-1.125L59.734,9.391l1.953,1.125Z" transform="translate(4702 2030)" fill="#fff"/><path d="M6.094,16.891H8.406a4.138,4.138,0,0,0,2.773-.906A3.233,3.233,0,0,0,12.2,13.406a3.523,3.523,0,0,0-.852-2.523,3.427,3.427,0,0,0-2.6-.9,3.625,3.625,0,0,0-2.516.883,2.95,2.95,0,0,0-.984,2.3h-3.8a5.747,5.747,0,0,1,.93-3.187A6.246,6.246,0,0,1,4.977,7.742a8.449,8.449,0,0,1,3.727-.8,7.825,7.825,0,0,1,5.352,1.711A6,6,0,0,1,16,13.406a4.835,4.835,0,0,1-.977,2.883A6.124,6.124,0,0,1,12.5,18.328a5.582,5.582,0,0,1,2.852,2.016,5.519,5.519,0,0,1,.977,3.281,6.11,6.11,0,0,1-2.1,4.875A8.159,8.159,0,0,1,8.7,30.313a8.1,8.1,0,0,1-5.375-1.75,5.763,5.763,0,0,1-2.094-4.656h3.8a3.176,3.176,0,0,0,1.008,2.438,3.822,3.822,0,0,0,2.711.938,3.942,3.942,0,0,0,2.781-.937,3.517,3.517,0,0,0,1.016-2.719,3.553,3.553,0,0,0-1.062-2.766,4.543,4.543,0,0,0-3.156-.969H6.094ZM20.672,35.125l-2.047-1.219a11.041,11.041,0,0,0,1.242-2.477,7.39,7.39,0,0,0,.352-2.148V26.328h3.422l-.016,2.734a7.621,7.621,0,0,1-.836,3.32A8.248,8.248,0,0,1,20.672,35.125ZM41.25,13.25a5.289,5.289,0,0,1-.859,2.977,5.961,5.961,0,0,1-2.344,2.055,6.492,6.492,0,0,1,2.742,2.266,5.715,5.715,0,0,1,.961,3.25,5.969,5.969,0,0,1-2.031,4.758,7.973,7.973,0,0,1-5.406,1.758,8,8,0,0,1-5.43-1.766,5.964,5.964,0,0,1-2.039-4.75,5.782,5.782,0,0,1,.969-3.281,6.223,6.223,0,0,1,2.719-2.234,5.927,5.927,0,0,1-2.32-2.055,5.324,5.324,0,0,1-.852-2.977,5.918,5.918,0,0,1,1.875-4.609,7.244,7.244,0,0,1,5.063-1.7,7.267,7.267,0,0,1,5.078,1.7A5.918,5.918,0,0,1,41.25,13.25Zm-3.3,10.359a3.75,3.75,0,0,0-1.008-2.727,3.542,3.542,0,0,0-2.664-1.039,3.5,3.5,0,0,0-2.648,1.031,3.778,3.778,0,0,0-.992,2.734,3.66,3.66,0,0,0,.977,2.672,3.594,3.594,0,0,0,2.7,1,3.605,3.605,0,0,0,2.68-.969A3.671,3.671,0,0,0,37.953,23.609Zm-.484-10.219a3.53,3.53,0,0,0-.859-2.445A3.3,3.3,0,0,0,32,10.9a3.532,3.532,0,0,0-.844,2.492,3.518,3.518,0,0,0,.852,2.484,3.342,3.342,0,0,0,4.609,0A3.518,3.518,0,0,0,37.469,13.391Zm7.484-1.766a4.566,4.566,0,0,1,1.328-3.383,5.289,5.289,0,0,1,6.992,0,4.68,4.68,0,0,1,1.32,3.461v1.125a4.534,4.534,0,0,1-1.32,3.359A4.716,4.716,0,0,1,49.8,17.5a4.865,4.865,0,0,1-3.477-1.289,4.55,4.55,0,0,1-1.367-3.477Zm2.656,1.2a2.506,2.506,0,0,0,.6,1.747,2.035,2.035,0,0,0,1.586.666,1.993,1.993,0,0,0,1.563-.666,2.62,2.62,0,0,0,.594-1.809V11.616a2.535,2.535,0,0,0-.6-1.755,2.024,2.024,0,0,0-1.586-.674,1.966,1.966,0,0,0-1.57.681,2.655,2.655,0,0,0-.586,1.794Zm8.281,11.6a4.472,4.472,0,0,1,1.359-3.391,5.3,5.3,0,0,1,6.945,0,4.623,4.623,0,0,1,1.352,3.5v1.109a4.57,4.57,0,0,1-1.3,3.352,4.688,4.688,0,0,1-3.492,1.32,4.827,4.827,0,0,1-3.523-1.3,4.6,4.6,0,0,1-1.336-3.445Zm2.656,1.2a2.492,2.492,0,0,0,.617,1.742,2.045,2.045,0,0,0,1.586.68,1.983,1.983,0,0,0,1.57-.648,2.666,2.666,0,0,0,.57-1.82V24.406a2.469,2.469,0,0,0-.609-1.75,2.2,2.2,0,0,0-3.133,0,2.581,2.581,0,0,0-.6,1.813ZM50.578,28.3l-1.953-1.125L59.734,9.391l1.953,1.125Z" transform="translate(4679 2118)" fill="#fff"/><path d="M6.094,16.891H8.406a4.138,4.138,0,0,0,2.773-.906A3.233,3.233,0,0,0,12.2,13.406a3.523,3.523,0,0,0-.852-2.523,3.427,3.427,0,0,0-2.6-.9,3.625,3.625,0,0,0-2.516.883,2.95,2.95,0,0,0-.984,2.3h-3.8a5.747,5.747,0,0,1,.93-3.187A6.246,6.246,0,0,1,4.977,7.742a8.449,8.449,0,0,1,3.727-.8,7.825,7.825,0,0,1,5.352,1.711A6,6,0,0,1,16,13.406a4.835,4.835,0,0,1-.977,2.883A6.124,6.124,0,0,1,12.5,18.328a5.582,5.582,0,0,1,2.852,2.016,5.519,5.519,0,0,1,.977,3.281,6.11,6.11,0,0,1-2.1,4.875A8.159,8.159,0,0,1,8.7,30.313a8.1,8.1,0,0,1-5.375-1.75,5.763,5.763,0,0,1-2.094-4.656h3.8a3.176,3.176,0,0,0,1.008,2.438,3.822,3.822,0,0,0,2.711.938,3.942,3.942,0,0,0,2.781-.937,3.517,3.517,0,0,0,1.016-2.719,3.553,3.553,0,0,0-1.062-2.766,4.543,4.543,0,0,0-3.156-.969H6.094ZM20.672,35.125l-2.047-1.219a11.041,11.041,0,0,0,1.242-2.477,7.39,7.39,0,0,0,.352-2.148V26.328h3.422l-.016,2.734a7.621,7.621,0,0,1-.836,3.32A8.248,8.248,0,0,1,20.672,35.125ZM39.766,21.891h2.828v3.047H39.766V30h-3.8V24.938H26.141l-.109-2.312L35.844,7.25h3.922Zm-9.75,0h5.953v-9.5l-.281.5ZM44.953,11.625a4.566,4.566,0,0,1,1.328-3.383,5.289,5.289,0,0,1,6.992,0,4.68,4.68,0,0,1,1.32,3.461v1.125a4.534,4.534,0,0,1-1.32,3.359A4.716,4.716,0,0,1,49.8,17.5a4.865,4.865,0,0,1-3.477-1.289,4.55,4.55,0,0,1-1.367-3.477Zm2.656,1.2a2.506,2.506,0,0,0,.6,1.747,2.035,2.035,0,0,0,1.586.666,1.993,1.993,0,0,0,1.563-.666,2.62,2.62,0,0,0,.594-1.809V11.616a2.535,2.535,0,0,0-.6-1.755,2.024,2.024,0,0,0-1.586-.674,1.966,1.966,0,0,0-1.57.681,2.655,2.655,0,0,0-.586,1.794Zm8.281,11.6a4.472,4.472,0,0,1,1.359-3.391,5.3,5.3,0,0,1,6.945,0,4.623,4.623,0,0,1,1.352,3.5v1.109a4.57,4.57,0,0,1-1.3,3.352,4.688,4.688,0,0,1-3.492,1.32,4.827,4.827,0,0,1-3.523-1.3,4.6,4.6,0,0,1-1.336-3.445Zm2.656,1.2a2.492,2.492,0,0,0,.617,1.742,2.045,2.045,0,0,0,1.586.68,1.983,1.983,0,0,0,1.57-.648,2.666,2.666,0,0,0,.57-1.82V24.406a2.469,2.469,0,0,0-.609-1.75,2.2,2.2,0,0,0-3.133,0,2.581,2.581,0,0,0-.6,1.813ZM50.578,28.3l-1.953-1.125L59.734,9.391l1.953,1.125Z" transform="translate(4670 2206)" fill="#fff"/><path d="M6.094,16.891H8.406a4.138,4.138,0,0,0,2.773-.906A3.233,3.233,0,0,0,12.2,13.406a3.523,3.523,0,0,0-.852-2.523,3.427,3.427,0,0,0-2.6-.9,3.625,3.625,0,0,0-2.516.883,2.95,2.95,0,0,0-.984,2.3h-3.8a5.747,5.747,0,0,1,.93-3.187A6.246,6.246,0,0,1,4.977,7.742a8.449,8.449,0,0,1,3.727-.8,7.825,7.825,0,0,1,5.352,1.711A6,6,0,0,1,16,13.406a4.835,4.835,0,0,1-.977,2.883A6.124,6.124,0,0,1,12.5,18.328a5.582,5.582,0,0,1,2.852,2.016,5.519,5.519,0,0,1,.977,3.281,6.11,6.11,0,0,1-2.1,4.875A8.159,8.159,0,0,1,8.7,30.313a8.1,8.1,0,0,1-5.375-1.75,5.763,5.763,0,0,1-2.094-4.656h3.8a3.176,3.176,0,0,0,1.008,2.438,3.822,3.822,0,0,0,2.711.938,3.942,3.942,0,0,0,2.781-.937,3.517,3.517,0,0,0,1.016-2.719,3.553,3.553,0,0,0-1.062-2.766,4.543,4.543,0,0,0-3.156-.969H6.094ZM20.672,35.125l-2.047-1.219a11.041,11.041,0,0,0,1.242-2.477,7.39,7.39,0,0,0,.352-2.148V26.328h3.422l-.016,2.734a7.621,7.621,0,0,1-.836,3.32A8.248,8.248,0,0,1,20.672,35.125ZM39.766,21.891h2.828v3.047H39.766V30h-3.8V24.938H26.141l-.109-2.312L35.844,7.25h3.922Zm-9.75,0h5.953v-9.5l-.281.5ZM44.953,11.625a4.566,4.566,0,0,1,1.328-3.383,5.289,5.289,0,0,1,6.992,0,4.68,4.68,0,0,1,1.32,3.461v1.125a4.534,4.534,0,0,1-1.32,3.359A4.716,4.716,0,0,1,49.8,17.5a4.865,4.865,0,0,1-3.477-1.289,4.55,4.55,0,0,1-1.367-3.477Zm2.656,1.2a2.506,2.506,0,0,0,.6,1.747,2.035,2.035,0,0,0,1.586.666,1.993,1.993,0,0,0,1.563-.666,2.62,2.62,0,0,0,.594-1.809V11.616a2.535,2.535,0,0,0-.6-1.755,2.024,2.024,0,0,0-1.586-.674,1.966,1.966,0,0,0-1.57.681,2.655,2.655,0,0,0-.586,1.794Zm8.281,11.6a4.472,4.472,0,0,1,1.359-3.391,5.3,5.3,0,0,1,6.945,0,4.623,4.623,0,0,1,1.352,3.5v1.109a4.57,4.57,0,0,1-1.3,3.352,4.688,4.688,0,0,1-3.492,1.32,4.827,4.827,0,0,1-3.523-1.3,4.6,4.6,0,0,1-1.336-3.445Zm2.656,1.2a2.492,2.492,0,0,0,.617,1.742,2.045,2.045,0,0,0,1.586.68,1.983,1.983,0,0,0,1.57-.648,2.666,2.666,0,0,0,.57-1.82V24.406a2.469,2.469,0,0,0-.609-1.75,2.2,2.2,0,0,0-3.133,0,2.581,2.581,0,0,0-.6,1.813ZM50.578,28.3l-1.953-1.125L59.734,9.391l1.953,1.125Z" transform="translate(4670 2294)" fill="#fff"/></g></g><path d="M0,0H10a6,6,0,0,1,6,6V42a6,6,0,0,1-6,6H0a0,0,0,0,1,0,0V0A0,0,0,0,1,0,0Z" transform="translate(760 688)" fill="#c02"/><path d="M16.531,20.422q0,4.906-1.836,7.4a6.484,6.484,0,0,1-5.586,2.492,6.57,6.57,0,0,1-5.555-2.43q-1.867-2.43-1.914-7.2V16.75q0-4.906,1.836-7.359a6.544,6.544,0,0,1,5.6-2.453,6.581,6.581,0,0,1,5.57,2.391q1.836,2.391,1.883,7.156Zm-3.8-4.25a9.626,9.626,0,0,0-.875-4.7A2.986,2.986,0,0,0,9.078,9.984,2.984,2.984,0,0,0,6.344,11.4a8.9,8.9,0,0,0-.922,4.414v5.156a9.875,9.875,0,0,0,.891,4.75,2.992,2.992,0,0,0,2.8,1.563,2.939,2.939,0,0,0,2.7-1.445,9.291,9.291,0,0,0,.922-4.523Zm7.938,18.953-2.047-1.219a11.041,11.041,0,0,0,1.242-2.477,7.39,7.39,0,0,0,.352-2.148V26.328h3.422l-.016,2.734a7.621,7.621,0,0,1-.836,3.32A8.248,8.248,0,0,1,20.672,35.125Zm7.266-16.406L29.172,7.25H41.391v3.281H32.328L31.7,15.969a7.024,7.024,0,0,1,3.563-.906,6.338,6.338,0,0,1,5.055,2.078,8.235,8.235,0,0,1,1.8,5.594,7.58,7.58,0,0,1-2,5.523,7.3,7.3,0,0,1-5.484,2.055,7.645,7.645,0,0,1-5.18-1.773,6.411,6.411,0,0,1-2.227-4.68h3.672A4.01,4.01,0,0,0,32.094,26.4a3.612,3.612,0,0,0,2.531.883,3.264,3.264,0,0,0,2.727-1.25,5.4,5.4,0,0,0,.977-3.406,4.767,4.767,0,0,0-1.078-3.289,3.771,3.771,0,0,0-2.969-1.211,4.147,4.147,0,0,0-3.312,1.344Zm17.016-7.094a4.566,4.566,0,0,1,1.328-3.383,5.289,5.289,0,0,1,6.992,0,4.68,4.68,0,0,1,1.32,3.461v1.125a4.534,4.534,0,0,1-1.32,3.359A4.716,4.716,0,0,1,49.8,17.5a4.865,4.865,0,0,1-3.477-1.289,4.55,4.55,0,0,1-1.367-3.477Zm2.656,1.2a2.506,2.506,0,0,0,.6,1.747,2.035,2.035,0,0,0,1.586.666,1.993,1.993,0,0,0,1.563-.666,2.62,2.62,0,0,0,.594-1.809V11.616a2.535,2.535,0,0,0-.6-1.755,2.024,2.024,0,0,0-1.586-.674,1.966,1.966,0,0,0-1.57.681,2.655,2.655,0,0,0-.586,1.794Zm8.281,11.6a4.472,4.472,0,0,1,1.359-3.391,5.3,5.3,0,0,1,6.945,0,4.623,4.623,0,0,1,1.352,3.5v1.109a4.57,4.57,0,0,1-1.3,3.352,4.688,4.688,0,0,1-3.492,1.32,4.827,4.827,0,0,1-3.523-1.3,4.6,4.6,0,0,1-1.336-3.445Zm2.656,1.2a2.492,2.492,0,0,0,.617,1.742,2.045,2.045,0,0,0,1.586.68,1.983,1.983,0,0,0,1.57-.648,2.666,2.666,0,0,0,.57-1.82V24.406a2.469,2.469,0,0,0-.609-1.75,2.2,2.2,0,0,0-3.133,0,2.581,2.581,0,0,0-.6,1.813ZM50.578,28.3l-1.953-1.125L59.734,9.391l1.953,1.125Z" transform="translate(791 693)" fill="#c02"/></svg>